<svg width="121" height="300" viewBox="0 0 121 300" fill="none" xmlns="http://www.w3.org/2000/svg">
<g clip-path="url(#clip0)">
<rect x="1.31592" y="1" width="118" height="298" rx="14" fill="white" stroke="black" stroke-width="2"/>
<rect x="21.3159" y="21" width="78" height="133" rx="2" stroke="black" stroke-opacity="0.25" stroke-width="2"/>
<rect x="31.3159" y="186" width="58" height="39" rx="7" stroke="black" stroke-opacity="0.25" stroke-width="2"/>
<path d="M29.519 250.25H34.2065V266C34.2065 267.448 33.8836 268.729 33.2378 269.844C32.6024 270.948 31.7013 271.802 30.5347 272.406C29.368 273.01 28.0503 273.312 26.5815 273.312C24.1753 273.312 22.3003 272.703 20.9565 271.484C19.6128 270.255 18.9409 268.521 18.9409 266.281H23.6597C23.6597 267.396 23.894 268.219 24.3628 268.75C24.8315 269.281 25.5711 269.547 26.5815 269.547C27.4774 269.547 28.1909 269.24 28.7222 268.625C29.2534 268.01 29.519 267.135 29.519 266V250.25ZM52.9622 268.312H44.7434L43.1809 273H38.1965L46.6653 250.25H51.009L59.5247 273H54.5403L52.9622 268.312ZM46.009 264.516H51.6965L48.8372 256L46.009 264.516ZM63.8897 273V250.25H70.8897C72.8897 250.25 74.6761 250.703 76.249 251.609C77.8324 252.505 79.0668 253.786 79.9522 255.453C80.8376 257.109 81.2803 258.995 81.2803 261.109V262.156C81.2803 264.271 80.8428 266.151 79.9678 267.797C79.1032 269.443 77.8793 270.719 76.2959 271.625C74.7126 272.531 72.9261 272.99 70.9365 273H63.8897ZM68.5772 254.047V269.234H70.8428C72.6761 269.234 74.0772 268.635 75.0459 267.438C76.0147 266.24 76.5095 264.526 76.5303 262.297V261.094C76.5303 258.781 76.0511 257.031 75.0928 255.844C74.1345 254.646 72.7334 254.047 70.8897 254.047H68.5772ZM100.63 263.141H91.6297V269.234H102.192V273H86.9422V250.25H102.161V254.047H91.6297V259.469H100.63V263.141Z" fill="black" fill-opacity="0.1"/>
</g>
<defs>
<clipPath id="clip0">
<rect width="120" height="300" fill="white" transform="translate(0.315918)"/>
</clipPath>
</defs>
</svg>
