<svg width="481" height="300" viewBox="0 0 481 300" fill="none" xmlns="http://www.w3.org/2000/svg">
<g clip-path="url(#clip0)">
<rect x="1.3158" y="1" width="478" height="298" rx="9" fill="white" stroke="black" stroke-width="2"/>
<rect x="41.3158" y="51" width="238" height="28" rx="3" stroke="black" stroke-opacity="0.25" stroke-width="2"/>
<rect x="41.3158" y="95" width="118" height="14" rx="3" stroke="black" stroke-opacity="0.25" stroke-width="2"/>
<rect x="40.3158" y="200" width="17.561" height="17.561" stroke="black" stroke-opacity="0.25" stroke-width="2"/>
<rect x="45.7059" y="205.39" width="6.78049" height="6.78049" stroke="black" stroke-opacity="0.25" stroke-width="2"/>
<rect x="40.3158" y="240.976" width="17.561" height="17.561" stroke="black" stroke-opacity="0.25" stroke-width="2"/>
<rect x="45.7059" y="246.366" width="6.78049" height="6.78049" stroke="black" stroke-opacity="0.25" stroke-width="2"/>
<rect x="81.2914" y="200" width="17.561" height="17.561" stroke="black" stroke-opacity="0.25" stroke-width="2"/>
<rect x="86.6818" y="205.39" width="6.78049" height="6.78049" stroke="black" stroke-opacity="0.25" stroke-width="2"/>
<mask id="path-10-inside-1" fill="white">
<path fill-rule="evenodd" clip-rule="evenodd" d="M71.0475 201.463H62.267V210.244H68.1207V214.634H62.267V221.951H49.0963V227.805H43.2426V236.585H52.023V230.732H56.4134V236.585H65.1939V224.878H68.1207V230.732H78.3646V235.122H85.6818V239.512H73.9742V245.366H68.1207V254.146H76.9012V248.293H85.6818V260H100.316V245.366H88.6084V242.439H100.316V227.805H91.5354V232.195H88.6085V221.951H71.0475V217.561H76.9012V207.317H71.0475V201.463Z"/>
</mask>
<path d="M62.267 201.463V199.463H60.267V201.463H62.267ZM71.0475 201.463H73.0475V199.463H71.0475V201.463ZM62.267 210.244H60.267V212.244H62.267V210.244ZM68.1207 210.244H70.1207V208.244H68.1207V210.244ZM68.1207 214.634V216.634H70.1207V214.634H68.1207ZM62.267 214.634V212.634H60.267V214.634H62.267ZM62.267 221.951V223.951H64.267V221.951H62.267ZM49.0963 221.951V219.951H47.0963V221.951H49.0963ZM49.0963 227.805V229.805H51.0963V227.805H49.0963ZM43.2426 227.805V225.805H41.2426V227.805H43.2426ZM43.2426 236.585H41.2426V238.585H43.2426V236.585ZM52.023 236.585V238.585H54.023V236.585H52.023ZM52.023 230.732V228.732H50.023V230.732H52.023ZM56.4134 230.732H58.4134V228.732H56.4134V230.732ZM56.4134 236.585H54.4134V238.585H56.4134V236.585ZM65.1939 236.585V238.585H67.1939V236.585H65.1939ZM65.1939 224.878V222.878H63.1939V224.878H65.1939ZM68.1207 224.878H70.1207V222.878H68.1207V224.878ZM68.1207 230.732H66.1207V232.732H68.1207V230.732ZM78.3646 230.732H80.3646V228.732H78.3646V230.732ZM78.3646 235.122H76.3646V237.122H78.3646V235.122ZM85.6818 235.122H87.6818V233.122H85.6818V235.122ZM85.6818 239.512V241.512H87.6818V239.512H85.6818ZM73.9742 239.512V237.512H71.9742V239.512H73.9742ZM73.9742 245.366V247.366H75.9742V245.366H73.9742ZM68.1207 245.366V243.366H66.1207V245.366H68.1207ZM68.1207 254.146H66.1207V256.146H68.1207V254.146ZM76.9012 254.146V256.146H78.9012V254.146H76.9012ZM76.9012 248.293V246.293H74.9012V248.293H76.9012ZM85.6818 248.293H87.6818V246.293H85.6818V248.293ZM85.6818 260H83.6818V262H85.6818V260ZM100.316 260V262H102.316V260H100.316ZM100.316 245.366H102.316V243.366H100.316V245.366ZM88.6084 245.366H86.6084V247.366H88.6084V245.366ZM88.6084 242.439V240.439H86.6084V242.439H88.6084ZM100.316 242.439V244.439H102.316V242.439H100.316ZM100.316 227.805H102.316V225.805H100.316V227.805ZM91.5354 227.805V225.805H89.5354V227.805H91.5354ZM91.5354 232.195V234.195H93.5354V232.195H91.5354ZM88.6085 232.195H86.6085V234.195H88.6085V232.195ZM88.6085 221.951H90.6085V219.951H88.6085V221.951ZM71.0475 221.951H69.0475V223.951H71.0475V221.951ZM71.0475 217.561V215.561H69.0475V217.561H71.0475ZM76.9012 217.561V219.561H78.9012V217.561H76.9012ZM76.9012 207.317H78.9012V205.317H76.9012V207.317ZM71.0475 207.317H69.0475V209.317H71.0475V207.317ZM62.267 203.463H71.0475V199.463H62.267V203.463ZM64.267 210.244V201.463H60.267V210.244H64.267ZM68.1207 208.244H62.267V212.244H68.1207V208.244ZM70.1207 214.634V210.244H66.1207V214.634H70.1207ZM62.267 216.634H68.1207V212.634H62.267V216.634ZM64.267 221.951V214.634H60.267V221.951H64.267ZM62.267 219.951H49.0963V223.951H62.267V219.951ZM47.0963 221.951V227.805H51.0963V221.951H47.0963ZM43.2426 229.805H49.0963V225.805H43.2426V229.805ZM45.2426 236.585V227.805H41.2426V236.585H45.2426ZM52.023 234.585H43.2426V238.585H52.023V234.585ZM50.023 230.732V236.585H54.023V230.732H50.023ZM52.023 232.732H56.4134V228.732H52.023V232.732ZM54.4134 230.732V236.585H58.4134V230.732H54.4134ZM56.4134 238.585H65.1939V234.585H56.4134V238.585ZM67.1939 236.585V224.878H63.1939V236.585H67.1939ZM68.1207 222.878H65.1939V226.878H68.1207V222.878ZM70.1207 230.732V224.878H66.1207V230.732H70.1207ZM78.3646 228.732H68.1207V232.732H78.3646V228.732ZM80.3646 235.122V230.732H76.3646V235.122H80.3646ZM85.6818 233.122H78.3646V237.122H85.6818V233.122ZM87.6818 239.512V235.122H83.6818V239.512H87.6818ZM73.9742 241.512H85.6818V237.512H73.9742V241.512ZM75.9742 245.366V239.512H71.9742V245.366H75.9742ZM68.1207 247.366H73.9742V243.366H68.1207V247.366ZM70.1207 254.146V245.366H66.1207V254.146H70.1207ZM76.9012 252.146H68.1207V256.146H76.9012V252.146ZM74.9012 248.293V254.146H78.9012V248.293H74.9012ZM85.6818 246.293H76.9012V250.293H85.6818V246.293ZM87.6818 260V248.293H83.6818V260H87.6818ZM100.316 258H85.6818V262H100.316V258ZM98.3159 245.366V260H102.316V245.366H98.3159ZM88.6084 247.366H100.316V243.366H88.6084V247.366ZM86.6084 242.439V245.366H90.6084V242.439H86.6084ZM100.316 240.439H88.6084V244.439H100.316V240.439ZM98.3159 227.805V242.439H102.316V227.805H98.3159ZM91.5354 229.805H100.316V225.805H91.5354V229.805ZM93.5354 232.195V227.805H89.5354V232.195H93.5354ZM88.6085 234.195H91.5354V230.195H88.6085V234.195ZM86.6085 221.951V232.195H90.6085V221.951H86.6085ZM71.0475 223.951H88.6085V219.951H71.0475V223.951ZM69.0475 217.561V221.951H73.0475V217.561H69.0475ZM76.9012 215.561H71.0475V219.561H76.9012V215.561ZM74.9012 207.317V217.561H78.9012V207.317H74.9012ZM71.0475 209.317H76.9012V205.317H71.0475V209.317ZM69.0475 201.463V207.317H73.0475V201.463H69.0475Z" fill="black" fill-opacity="0.25" mask="url(#path-10-inside-1)"/>
<rect x="131.316" y="211" width="222" height="14" rx="3" stroke="black" stroke-opacity="0.25" stroke-width="2"/>
<rect x="131.316" y="237" width="138" height="14" rx="3" stroke="black" stroke-opacity="0.25" stroke-width="2"/>
</g>
<defs>
<clipPath id="clip0">
<rect width="480" height="300" fill="white" transform="translate(0.315796)"/>
</clipPath>
</defs>
</svg>
