<svg width="171" height="300" viewBox="0 0 171 300" fill="none" xmlns="http://www.w3.org/2000/svg">
<g clip-path="url(#clip0)">
<rect x="1.3158" y="4" width="168" height="295" fill="white" stroke="black" stroke-width="2"/>
<rect x="115.316" y="1" width="30" height="3" stroke="black" stroke-width="2"/>
<rect x="16.3158" y="24" width="138" height="240" stroke="black" stroke-opacity="0.25" stroke-width="2"/>
<rect x="26.3158" y="161" width="118" height="10" rx="5" stroke="black" stroke-opacity="0.25" stroke-width="2"/>
<rect x="26.3158" y="61" width="118" height="10" rx="5" stroke="black" stroke-opacity="0.25" stroke-width="2"/>
<rect x="26.3158" y="186" width="118" height="10" rx="5" stroke="black" stroke-opacity="0.25" stroke-width="2"/>
<rect x="26.3158" y="86" width="118" height="10" rx="5" stroke="black" stroke-opacity="0.25" stroke-width="2"/>
<rect x="26.3158" y="211" width="118" height="10" rx="5" stroke="black" stroke-opacity="0.25" stroke-width="2"/>
<rect x="26.3158" y="111" width="118" height="10" rx="5" stroke="black" stroke-opacity="0.25" stroke-width="2"/>
<rect x="26.3158" y="236" width="118" height="10" rx="5" stroke="black" stroke-opacity="0.25" stroke-width="2"/>
<rect x="26.3158" y="137" width="118" height="10" rx="5" stroke="black" stroke-opacity="0.25" stroke-width="2"/>
<rect x="26.3158" y="36" width="10" height="10" stroke="black" stroke-opacity="0.25" stroke-width="2"/>
<rect x="134.316" y="36" width="10" height="10" stroke="black" stroke-opacity="0.25" stroke-width="2"/>
<rect x="66.3158" y="277" width="38" height="6" stroke="black" stroke-opacity="0.25" stroke-width="2"/>
</g>
<defs>
<clipPath id="clip0">
<rect width="170" height="300" fill="white" transform="translate(0.315796)"/>
</clipPath>
</defs>
</svg>
