<svg width="301" height="300" viewBox="0 0 301 300" fill="none" xmlns="http://www.w3.org/2000/svg">
<mask id="path-1-inside-1" fill="white">
<path fill-rule="evenodd" clip-rule="evenodd" d="M166.343 4C168.537 4 170.316 5.77869 170.316 7.9728C170.316 9.9496 171.77 11.6195 173.72 11.9476C181.486 13.2546 189.036 15.2012 196.312 17.7312C198.265 18.4103 200.438 17.5896 201.399 15.7588C202.451 13.7563 204.926 12.9852 206.929 14.0366L232.221 27.3152C234.343 28.4291 235.16 31.0521 234.046 33.1738C233.043 35.0841 233.6 37.4353 235.314 38.7464C241.251 43.2896 246.815 48.2973 251.949 53.7153C253.487 55.3377 255.978 55.639 257.817 54.3695C259.835 52.9767 262.601 53.4837 263.993 55.5019L279.892 78.5396C281.325 80.6164 280.803 83.4619 278.727 84.8952C276.849 86.1906 276.223 88.6685 277.189 90.7343C280.257 97.2897 282.831 104.122 284.865 111.183C285.505 113.408 287.646 114.879 289.945 114.6C292.473 114.293 294.772 116.094 295.079 118.623L298.419 146.146C298.73 148.702 296.909 151.026 294.352 151.336C292.034 151.618 290.29 153.571 290.194 155.904C289.889 163.248 289.019 170.445 287.625 177.454C287.174 179.723 288.392 182.013 290.556 182.833C292.948 183.741 294.152 186.416 293.245 188.809L283.378 214.824C282.488 217.17 279.865 218.351 277.519 217.461C275.385 216.652 272.989 217.555 271.854 219.535C268.177 225.948 264.008 232.042 259.397 237.765C257.996 239.504 258.014 242.005 259.494 243.677C261.135 245.529 260.963 248.361 259.11 250.002L237.971 268.724C236.201 270.292 233.495 270.128 231.928 268.358C230.495 266.74 228.086 266.45 226.272 267.624C219.907 271.742 213.186 275.359 206.166 278.416C204.273 279.241 203.216 281.298 203.71 283.303C204.259 285.53 202.898 287.781 200.67 288.329L172.585 295.249C170.482 295.767 168.358 294.482 167.84 292.379C167.366 290.458 165.536 289.196 163.565 289.381C159.204 289.791 154.784 290 150.316 290C146.772 290 143.259 289.868 139.781 289.61C137.906 289.47 136.185 290.683 135.734 292.509C135.234 294.538 133.183 295.778 131.153 295.278L102.327 288.171C100.437 287.704 99.2819 285.794 99.748 283.904C100.174 282.175 99.2421 280.404 97.5926 279.733C89.8805 276.596 82.5112 272.791 75.5564 268.39C74.1205 267.481 72.2314 267.725 71.1046 268.997C69.8561 270.406 67.7017 270.536 66.2926 269.288L43.569 249.155C42.2329 247.971 42.1094 245.929 43.2932 244.593C44.3743 243.372 44.3741 241.54 43.322 240.295C37.8312 233.795 32.9219 226.789 28.6745 219.355C27.8972 217.995 26.2506 217.382 24.7857 217.937C23.1657 218.551 21.3547 217.736 20.7406 216.116L9.81777 187.301C9.22125 185.727 10.0134 183.968 11.587 183.371C13.0184 182.829 13.8215 181.309 13.497 179.813C11.6931 171.496 10.6284 162.904 10.3749 154.108C10.3309 152.581 9.18938 151.301 7.67276 151.116C6.0035 150.913 4.81478 149.396 5.01767 147.727L8.74597 117.052C8.94956 115.377 10.4725 114.184 12.1475 114.388C13.6669 114.573 15.0849 113.603 15.4981 112.129C17.8444 103.759 20.9493 95.7063 24.7339 88.0491C25.4283 86.6441 25.006 84.9348 23.7162 84.0444C22.3025 83.0684 21.9476 81.1312 22.9236 79.7175L40.3213 54.517C41.3463 53.0322 43.381 52.6595 44.8658 53.6845C46.2067 54.6103 48.0218 54.4034 49.1483 53.2261C54.955 47.1574 61.3023 41.6103 68.113 36.6621C69.4887 35.6626 69.9466 33.8076 69.1564 32.3019C68.2914 30.6536 68.9264 28.6162 70.5746 27.7512L97.1869 13.7854C98.9353 12.8678 101.097 13.5414 102.014 15.2898C102.841 16.8651 104.698 17.5881 106.388 17.0303C114.005 14.5152 121.912 12.6363 130.045 11.4567C131.909 11.1865 133.316 9.60547 133.316 7.72257C133.316 5.66665 134.982 4 137.038 4H166.343ZM150.316 167C159.705 167 167.316 159.389 167.316 150C167.316 140.611 159.705 133 150.316 133C140.927 133 133.316 140.611 133.316 150C133.316 159.389 140.927 167 150.316 167Z"/>
</mask>
<path fill-rule="evenodd" clip-rule="evenodd" d="M166.343 4C168.537 4 170.316 5.77869 170.316 7.9728C170.316 9.9496 171.77 11.6195 173.72 11.9476C181.486 13.2546 189.036 15.2012 196.312 17.7312C198.265 18.4103 200.438 17.5896 201.399 15.7588C202.451 13.7563 204.926 12.9852 206.929 14.0366L232.221 27.3152C234.343 28.4291 235.16 31.0521 234.046 33.1738C233.043 35.0841 233.6 37.4353 235.314 38.7464C241.251 43.2896 246.815 48.2973 251.949 53.7153C253.487 55.3377 255.978 55.639 257.817 54.3695C259.835 52.9767 262.601 53.4837 263.993 55.5019L279.892 78.5396C281.325 80.6164 280.803 83.4619 278.727 84.8952C276.849 86.1906 276.223 88.6685 277.189 90.7343C280.257 97.2897 282.831 104.122 284.865 111.183C285.505 113.408 287.646 114.879 289.945 114.6C292.473 114.293 294.772 116.094 295.079 118.623L298.419 146.146C298.73 148.702 296.909 151.026 294.352 151.336C292.034 151.618 290.29 153.571 290.194 155.904C289.889 163.248 289.019 170.445 287.625 177.454C287.174 179.723 288.392 182.013 290.556 182.833C292.948 183.741 294.152 186.416 293.245 188.809L283.378 214.824C282.488 217.17 279.865 218.351 277.519 217.461C275.385 216.652 272.989 217.555 271.854 219.535C268.177 225.948 264.008 232.042 259.397 237.765C257.996 239.504 258.014 242.005 259.494 243.677C261.135 245.529 260.963 248.361 259.11 250.002L237.971 268.724C236.201 270.292 233.495 270.128 231.928 268.358C230.495 266.74 228.086 266.45 226.272 267.624C219.907 271.742 213.186 275.359 206.166 278.416C204.273 279.241 203.216 281.298 203.71 283.303C204.259 285.53 202.898 287.781 200.67 288.329L172.585 295.249C170.482 295.767 168.358 294.482 167.84 292.379C167.366 290.458 165.536 289.196 163.565 289.381C159.204 289.791 154.784 290 150.316 290C146.772 290 143.259 289.868 139.781 289.61C137.906 289.47 136.185 290.683 135.734 292.509C135.234 294.538 133.183 295.778 131.153 295.278L102.327 288.171C100.437 287.704 99.2819 285.794 99.748 283.904C100.174 282.175 99.2421 280.404 97.5926 279.733C89.8805 276.596 82.5112 272.791 75.5564 268.39C74.1205 267.481 72.2314 267.725 71.1046 268.997C69.8561 270.406 67.7017 270.536 66.2926 269.288L43.569 249.155C42.2329 247.971 42.1094 245.929 43.2932 244.593C44.3743 243.372 44.3741 241.54 43.322 240.295C37.8312 233.795 32.9219 226.789 28.6745 219.355C27.8972 217.995 26.2506 217.382 24.7857 217.937C23.1657 218.551 21.3547 217.736 20.7406 216.116L9.81777 187.301C9.22125 185.727 10.0134 183.968 11.587 183.371C13.0184 182.829 13.8215 181.309 13.497 179.813C11.6931 171.496 10.6284 162.904 10.3749 154.108C10.3309 152.581 9.18938 151.301 7.67276 151.116C6.0035 150.913 4.81478 149.396 5.01767 147.727L8.74597 117.052C8.94956 115.377 10.4725 114.184 12.1475 114.388C13.6669 114.573 15.0849 113.603 15.4981 112.129C17.8444 103.759 20.9493 95.7063 24.7339 88.0491C25.4283 86.6441 25.006 84.9348 23.7162 84.0444C22.3025 83.0684 21.9476 81.1312 22.9236 79.7175L40.3213 54.517C41.3463 53.0322 43.381 52.6595 44.8658 53.6845C46.2067 54.6103 48.0218 54.4034 49.1483 53.2261C54.955 47.1574 61.3023 41.6103 68.113 36.6621C69.4887 35.6626 69.9466 33.8076 69.1564 32.3019C68.2914 30.6536 68.9264 28.6162 70.5746 27.7512L97.1869 13.7854C98.9353 12.8678 101.097 13.5414 102.014 15.2898C102.841 16.8651 104.698 17.5881 106.388 17.0303C114.005 14.5152 121.912 12.6363 130.045 11.4567C131.909 11.1865 133.316 9.60547 133.316 7.72257C133.316 5.66665 134.982 4 137.038 4H166.343ZM150.316 167C159.705 167 167.316 159.389 167.316 150C167.316 140.611 159.705 133 150.316 133C140.927 133 133.316 140.611 133.316 150C133.316 159.389 140.927 167 150.316 167Z" fill="white"/>
<path d="M173.72 11.9476L174.052 9.97531L174.052 9.97531L173.72 11.9476ZM196.312 17.7312L196.969 15.8421L196.969 15.8421L196.312 17.7312ZM201.399 15.7588L199.629 14.8292L199.629 14.8292L201.399 15.7588ZM206.929 14.0366L207.859 12.2658L207.859 12.2658L206.929 14.0366ZM232.221 27.3152L231.291 29.086L231.291 29.086L232.221 27.3152ZM234.046 33.1738L232.275 32.2441L232.275 32.2441L234.046 33.1738ZM235.314 38.7464L234.099 40.3348L234.099 40.3348L235.314 38.7464ZM251.949 53.7153L253.401 52.3396L253.401 52.3396L251.949 53.7153ZM257.817 54.3695L258.953 56.0156L258.953 56.0156L257.817 54.3695ZM263.993 55.5019L262.347 56.6379L262.347 56.6379L263.993 55.5019ZM279.892 78.5396L278.246 79.6756L278.246 79.6756L279.892 78.5396ZM278.727 84.8952L279.863 86.5412L279.863 86.5412L278.727 84.8952ZM277.189 90.7343L279.001 89.8867L279.001 89.8867L277.189 90.7343ZM284.865 111.183L282.943 111.737L282.943 111.737L284.865 111.183ZM289.945 114.6L289.704 112.614L289.704 112.614L289.945 114.6ZM295.079 118.623L297.064 118.382L297.064 118.382L295.079 118.623ZM298.419 146.146L300.405 145.905L300.405 145.905L298.419 146.146ZM294.352 151.336L294.593 153.322L294.593 153.322L294.352 151.336ZM290.194 155.904L288.195 155.821L288.195 155.821L290.194 155.904ZM287.625 177.454L289.587 177.844L289.587 177.844L287.625 177.454ZM290.556 182.833L289.846 184.703L289.846 184.703L290.556 182.833ZM293.245 188.809L291.375 188.1L291.375 188.1L293.245 188.809ZM283.378 214.824L285.248 215.533L285.248 215.533L283.378 214.824ZM277.519 217.461L276.81 219.331L276.81 219.331L277.519 217.461ZM271.854 219.535L273.589 220.53L273.589 220.53L271.854 219.535ZM259.397 237.765L257.839 236.51L257.839 236.51L259.397 237.765ZM259.494 243.677L260.991 242.351L260.991 242.351L259.494 243.677ZM259.11 250.002L257.784 248.505L257.784 248.505L259.11 250.002ZM237.971 268.724L236.645 267.227L236.645 267.227L237.971 268.724ZM231.928 268.358L233.425 267.032L233.425 267.032L231.928 268.358ZM226.272 267.624L227.359 269.303L227.359 269.303L226.272 267.624ZM206.166 278.416L206.964 280.25L206.964 280.25L206.166 278.416ZM203.71 283.303L201.768 283.781L201.768 283.781L203.71 283.303ZM200.67 288.329L201.149 290.271L201.149 290.271L200.67 288.329ZM172.585 295.249L173.063 297.191L173.063 297.191L172.585 295.249ZM167.84 292.379L169.782 291.901L169.782 291.901L167.84 292.379ZM163.565 289.381L163.378 287.39L163.378 287.39L163.565 289.381ZM139.781 289.61L139.633 291.604L139.633 291.604L139.781 289.61ZM135.734 292.509L133.793 292.03L133.793 292.03L135.734 292.509ZM131.153 295.278L131.632 293.336L131.632 293.336L131.153 295.278ZM102.327 288.171L101.848 290.112L101.848 290.112L102.327 288.171ZM99.748 283.904L101.69 284.383L101.69 284.383L99.748 283.904ZM97.5926 279.733L96.839 281.585L96.839 281.585L97.5926 279.733ZM75.5564 268.39L76.6259 266.7L76.6259 266.7L75.5564 268.39ZM71.1046 268.997L72.6016 270.323L72.6016 270.323L71.1046 268.997ZM66.2926 269.288L64.9663 270.785L64.9663 270.785L66.2926 269.288ZM43.569 249.155L42.2427 250.652L42.2427 250.652L43.569 249.155ZM43.2932 244.593L44.7901 245.919L44.7901 245.919L43.2932 244.593ZM43.322 240.295L41.7942 241.586L41.7942 241.586L43.322 240.295ZM28.6745 219.355L26.9379 220.347L26.9379 220.347L28.6745 219.355ZM24.7857 217.937L24.0768 216.067L24.0768 216.067L24.7857 217.937ZM20.7406 216.116L18.8705 216.825L18.8705 216.825L20.7406 216.116ZM9.81777 187.301L11.6879 186.592L11.6879 186.592L9.81777 187.301ZM11.587 183.371L10.8781 181.501L10.8781 181.501L11.587 183.371ZM13.497 179.813L11.5424 180.237L11.5424 180.237L13.497 179.813ZM10.3749 154.108L8.37576 154.166L8.37576 154.166L10.3749 154.108ZM7.67276 151.116L7.43143 153.102L7.43144 153.102L7.67276 151.116ZM5.01767 147.727L7.00306 147.968L7.00306 147.968L5.01767 147.727ZM8.74597 117.052L6.76058 116.811L6.76058 116.811L8.74597 117.052ZM12.1475 114.388L11.9062 116.373L11.9062 116.373L12.1475 114.388ZM15.4981 112.129L13.5723 111.59L13.5723 111.59L15.4981 112.129ZM24.7339 88.0491L26.5268 88.9353L26.5268 88.9353L24.7339 88.0491ZM23.7162 84.0444L24.8524 82.3985L24.8524 82.3985L23.7162 84.0444ZM22.9236 79.7175L21.2777 78.5812L21.2777 78.5812L22.9236 79.7175ZM40.3213 54.517L38.6754 53.3807L38.6754 53.3807L40.3213 54.517ZM44.8658 53.6845L46.002 52.0387L46.002 52.0387L44.8658 53.6845ZM49.1483 53.2261L47.7032 51.8434L47.7032 51.8434L49.1483 53.2261ZM68.113 36.6621L69.2885 38.2801L69.2885 38.2801L68.113 36.6621ZM69.1564 32.3019L70.9273 31.3725L70.9273 31.3725L69.1564 32.3019ZM70.5746 27.7512L71.504 29.5221L71.504 29.5221L70.5746 27.7512ZM97.1869 13.7854L96.2575 12.0144L97.1869 13.7854ZM102.014 15.2898L103.785 14.3604L103.785 14.3604L102.014 15.2898ZM106.388 17.0303L105.761 15.1311L105.761 15.1311L106.388 17.0303ZM130.045 11.4567L130.333 13.436L130.333 13.436L130.045 11.4567ZM172.316 7.9728C172.316 4.67412 169.642 2 166.343 2V6C167.433 6 168.316 6.88325 168.316 7.9728H172.316ZM174.052 9.97531C173.035 9.80425 172.316 8.94298 172.316 7.9728H168.316C168.316 10.9562 170.506 13.4348 173.388 13.9198L174.052 9.97531ZM196.969 15.8421C189.588 13.2757 181.93 11.3011 174.052 9.97531L173.388 13.9198C181.043 15.2082 188.484 17.1267 195.655 19.6203L196.969 15.8421ZM199.629 14.8292C199.142 15.7551 198.017 16.2067 196.969 15.8421L195.655 19.6203C198.513 20.6139 201.734 19.4242 203.17 16.6885L199.629 14.8292ZM207.859 12.2658C204.878 10.701 201.193 11.8487 199.629 14.8292L203.17 16.6885C203.708 15.664 204.975 15.2695 205.999 15.8074L207.859 12.2658ZM233.151 25.5444L207.859 12.2658L205.999 15.8074L231.291 29.086L233.151 25.5444ZM235.816 34.1035C237.444 31.0038 236.25 27.1718 233.151 25.5444L231.291 29.086C232.435 29.6865 232.875 31.1004 232.275 32.2441L235.816 34.1035ZM236.529 37.1581C235.563 36.419 235.281 35.1224 235.816 34.1035L232.275 32.2441C230.804 35.0459 231.637 38.4516 234.099 40.3348L236.529 37.1581ZM253.401 52.3396C248.193 46.8447 242.551 41.7658 236.529 37.1581L234.099 40.3348C239.952 44.8134 245.436 49.7499 250.498 55.091L253.401 52.3396ZM256.681 52.7234C255.681 53.4138 254.284 53.2713 253.401 52.3396L250.498 55.091C252.689 57.404 256.274 57.8643 258.953 56.0156L256.681 52.7234ZM265.639 54.3659C263.619 51.4386 259.609 50.7033 256.681 52.7234L258.953 56.0156C260.062 55.2502 261.582 55.5288 262.347 56.6379L265.639 54.3659ZM281.538 77.4036L265.639 54.3659L262.347 56.6379L278.246 79.6756L281.538 77.4036ZM279.863 86.5412C282.849 84.4806 283.599 80.3896 281.538 77.4036L278.246 79.6756C279.052 80.8433 278.758 82.4432 277.591 83.2491L279.863 86.5412ZM279.001 89.8867C278.433 88.6737 278.818 87.2622 279.863 86.5412L277.591 83.2491C274.881 85.119 274.012 88.6634 275.378 91.582L279.001 89.8867ZM286.787 110.63C284.724 103.467 282.112 96.5362 279.001 89.8867L275.378 91.582C278.401 98.0432 280.939 104.777 282.943 111.737L286.787 110.63ZM289.704 112.614C288.415 112.771 287.166 111.946 286.787 110.63L282.943 111.737C283.845 114.87 286.877 116.987 290.186 116.585L289.704 112.614ZM297.064 118.382C296.624 114.757 293.329 112.174 289.704 112.614L290.186 116.585C291.618 116.411 292.92 117.432 293.094 118.864L297.064 118.382ZM300.405 145.905L297.064 118.382L293.094 118.864L296.434 146.387L300.405 145.905ZM294.593 153.322C298.246 152.878 300.848 149.558 300.405 145.905L296.434 146.387C296.611 147.847 295.571 149.174 294.112 149.351L294.593 153.322ZM292.192 155.987C292.25 154.598 293.283 153.481 294.593 153.322L294.112 149.351C290.786 149.755 288.331 152.545 288.195 155.821L292.192 155.987ZM289.587 177.844C291 170.734 291.883 163.434 292.192 155.987L288.195 155.821C287.895 163.061 287.037 170.156 285.663 177.064L289.587 177.844ZM291.265 180.963C290.047 180.502 289.319 179.19 289.587 177.844L285.663 177.064C285.029 180.256 286.736 183.524 289.846 184.703L291.265 180.963ZM295.115 189.518C296.414 186.093 294.69 182.262 291.265 180.963L289.846 184.703C291.206 185.219 291.891 186.74 291.375 188.1L295.115 189.518ZM285.248 215.533L295.115 189.518L291.375 188.1L281.508 214.115L285.248 215.533ZM276.81 219.331C280.189 220.612 283.967 218.912 285.248 215.533L281.508 214.115C281.01 215.428 279.542 216.089 278.228 215.591L276.81 219.331ZM273.589 220.53C274.253 219.372 275.628 218.882 276.81 219.331L278.228 215.591C275.143 214.421 271.726 215.738 270.119 218.54L273.589 220.53ZM260.954 239.02C265.631 233.215 269.86 227.034 273.589 220.53L270.119 218.54C266.495 224.861 262.385 230.868 257.839 236.51L260.954 239.02ZM260.991 242.351C260.18 241.435 260.144 240.025 260.954 239.02L257.839 236.51C255.848 238.982 255.847 242.576 257.997 245.003L260.991 242.351ZM260.437 251.499C263.116 249.126 263.364 245.03 260.991 242.351L257.997 245.003C258.905 246.028 258.81 247.596 257.784 248.505L260.437 251.499ZM239.297 270.221L260.437 251.499L257.784 248.505L236.645 267.227L239.297 270.221ZM230.431 269.684C232.731 272.281 236.7 272.521 239.297 270.221L236.645 267.227C235.702 268.062 234.26 267.975 233.425 267.032L230.431 269.684ZM227.359 269.303C228.371 268.648 229.676 268.831 230.431 269.684L233.425 267.032C231.315 264.649 227.802 264.252 225.186 265.944L227.359 269.303ZM206.964 280.25C214.086 277.148 220.903 273.48 227.359 269.303L225.186 265.944C218.911 270.005 212.287 273.569 205.367 276.583L206.964 280.25ZM205.652 282.824C205.399 281.796 205.936 280.698 206.964 280.25L205.367 276.583C202.61 277.784 201.033 280.799 201.768 283.781L205.652 282.824ZM201.149 290.271C204.449 289.458 206.465 286.124 205.652 282.824L201.768 283.781C202.053 284.936 201.347 286.103 200.192 286.388L201.149 290.271ZM173.063 297.191L201.149 290.271L200.192 286.388L172.107 293.307L173.063 297.191ZM165.898 292.858C166.68 296.033 169.888 297.973 173.063 297.191L172.107 293.307C171.076 293.561 170.036 292.931 169.782 291.901L165.898 292.858ZM163.752 291.372C164.767 291.277 165.669 291.928 165.898 292.858L169.782 291.901C169.064 288.988 166.305 287.115 163.378 287.39L163.752 291.372ZM150.316 292C154.847 292 159.329 291.788 163.752 291.372L163.378 287.39C159.079 287.794 154.722 288 150.316 288V292ZM139.633 291.604C143.16 291.866 146.722 292 150.316 292V288C146.822 288 143.358 287.87 139.93 287.615L139.633 291.604ZM137.676 292.987C137.886 292.137 138.703 291.535 139.633 291.604L139.93 287.615C137.11 287.405 134.483 289.229 133.793 292.03L137.676 292.987ZM130.674 297.219C133.777 297.984 136.911 296.09 137.676 292.987L133.793 292.03C133.557 292.987 132.589 293.572 131.632 293.336L130.674 297.219ZM101.848 290.112L130.674 297.219L131.632 293.336L102.806 286.229L101.848 290.112ZM97.8061 283.425C97.0756 286.388 98.8853 289.382 101.848 290.112L102.806 286.229C101.988 286.027 101.488 285.2 101.69 284.383L97.8061 283.425ZM96.839 281.585C97.5943 281.893 97.988 282.687 97.8061 283.425L101.69 284.383C102.36 281.662 100.89 278.915 98.3462 277.88L96.839 281.585ZM74.4869 270.08C81.541 274.543 89.016 278.403 96.839 281.585L98.3463 277.88C90.7451 274.788 83.4814 271.038 76.6259 266.7L74.4869 270.08ZM72.6016 270.323C73.0608 269.805 73.8579 269.682 74.487 270.08L76.6259 266.7C74.3831 265.28 71.4021 265.645 69.6076 267.67L72.6016 270.323ZM64.9663 270.785C67.2022 272.765 70.6206 272.559 72.6016 270.323L69.6076 267.67C69.0916 268.253 68.2013 268.307 67.6189 267.791L64.9663 270.785ZM42.2427 250.652L64.9663 270.785L67.6189 267.791L44.8953 247.658L42.2427 250.652ZM41.7962 243.266C39.88 245.429 40.0799 248.736 42.2427 250.652L44.8953 247.658C44.386 247.207 44.3389 246.428 44.7901 245.919L41.7962 243.266ZM41.7942 241.586C42.2214 242.091 42.202 242.808 41.7962 243.266L44.7901 245.919C46.5466 243.936 46.5268 240.989 44.8498 239.004L41.7942 241.586ZM26.9379 220.347C31.2462 227.887 36.2254 234.994 41.7942 241.586L44.8498 239.004C39.437 232.597 34.5977 225.69 30.411 218.363L26.9379 220.347ZM25.4946 219.807C26.0169 219.609 26.6369 219.82 26.9379 220.347L30.411 218.363C29.1576 216.169 26.4842 215.155 24.0768 216.067L25.4946 219.807ZM18.8705 216.825C19.8761 219.478 22.8418 220.813 25.4946 219.807L24.0768 216.067C23.4897 216.29 22.8333 215.994 22.6108 215.407L18.8705 216.825ZM7.94762 188.01L18.8705 216.825L22.6108 215.407L11.6879 186.592L7.94762 188.01ZM10.8781 181.501C8.27161 182.489 6.95959 185.403 7.94762 188.01L11.6879 186.592C11.4829 186.051 11.7551 185.447 12.2959 185.242L10.8781 181.501ZM11.5424 180.237C11.6621 180.789 11.3616 181.318 10.8781 181.501L12.2959 185.242C14.6751 184.34 15.9808 181.83 15.4516 179.389L11.5424 180.237ZM8.37576 154.166C8.63279 163.085 9.71262 171.8 11.5424 180.237L15.4516 179.389C13.6737 171.192 12.624 162.722 12.3741 154.05L8.37576 154.166ZM7.43144 153.102C7.94298 153.164 8.35958 153.604 8.37576 154.166L12.3741 154.05C12.3023 151.558 10.4358 149.437 7.91407 149.131L7.43144 153.102ZM3.03228 147.485C2.69612 150.251 4.66569 152.766 7.43143 153.102L7.91408 149.131C7.34131 149.061 6.93344 148.541 7.00306 147.968L3.03228 147.485ZM6.76058 116.811L3.03228 147.485L7.00306 147.968L10.7314 117.293L6.76058 116.811ZM12.3888 112.403C9.61727 112.066 7.09744 114.039 6.76058 116.811L10.7314 117.293C10.8017 116.715 11.3277 116.303 11.9062 116.373L12.3888 112.403ZM13.5723 111.59C13.4192 112.136 12.9046 112.465 12.3888 112.403L11.9062 116.373C14.4292 116.68 16.7506 115.071 17.4238 112.669L13.5723 111.59ZM22.9409 87.1629C19.102 94.93 15.9525 103.099 13.5723 111.59L17.4238 112.669C19.7364 104.42 22.7966 96.4826 26.5268 88.9353L22.9409 87.1629ZM22.5799 85.6903C23.0328 86.0029 23.2063 86.6261 22.9409 87.1629L26.5268 88.9353C27.6504 86.662 26.9791 83.8667 24.8524 82.3985L22.5799 85.6903ZM21.2777 78.5812C19.6742 80.9039 20.2572 84.0867 22.5799 85.6903L24.8524 82.3985C24.3477 82.0501 24.2211 81.3585 24.5695 80.8538L21.2777 78.5812ZM38.6754 53.3807L21.2777 78.5812L24.5695 80.8538L41.9672 55.6532L38.6754 53.3807ZM46.002 52.0387C43.6082 50.3861 40.328 50.9869 38.6754 53.3807L41.9672 55.6532C42.3647 55.0774 43.1537 54.9329 43.7295 55.3304L46.002 52.0387ZM47.7032 51.8434C47.2386 52.329 46.5143 52.3923 46.002 52.0387L43.7295 55.3304C45.8991 56.8282 48.805 56.4778 50.5933 54.6088L47.7032 51.8434ZM66.9374 35.0441C60.0298 40.0627 53.5923 45.6886 47.7032 51.8434L50.5933 54.6088C56.3177 48.6262 62.5748 43.1579 69.2885 38.2801L66.9374 35.0441ZM67.3854 33.2313C67.7021 33.8347 67.5311 34.6127 66.9374 35.0441L69.2885 38.2801C71.4463 36.7124 72.191 33.7805 70.9273 31.3725L67.3854 33.2313ZM69.6453 25.9802C67.0189 27.3585 66.0072 30.6049 67.3854 33.2313L70.9273 31.3725C70.5756 30.7023 70.8338 29.8739 71.504 29.5221L69.6453 25.9802ZM96.2575 12.0144L69.6453 25.9802L71.504 29.5221L98.1162 15.5563L96.2575 12.0144ZM103.785 14.3604C102.354 11.6339 98.984 10.5836 96.2575 12.0144L98.1162 15.5563C98.8866 15.152 99.8389 15.4488 100.243 16.2192L103.785 14.3604ZM105.761 15.1311C104.974 15.3908 104.145 15.0454 103.785 14.3604L100.243 16.2192C101.537 18.6848 104.423 19.7854 107.015 18.9295L105.761 15.1311ZM129.758 9.47743C121.509 10.6739 113.488 12.5798 105.761 15.1311L107.015 18.9295C114.522 16.4506 122.316 14.5987 130.333 13.436L129.758 9.47743ZM131.316 7.72257C131.316 8.58275 130.667 9.34559 129.758 9.47743L130.333 13.436C133.15 13.0273 135.316 10.6282 135.316 7.72257H131.316ZM137.038 2C133.878 2 131.316 4.56208 131.316 7.72257H135.316C135.316 6.77123 136.087 6 137.038 6V2ZM166.343 2H137.038V6H166.343V2ZM165.316 150C165.316 158.284 158.6 165 150.316 165V169C160.809 169 169.316 160.493 169.316 150H165.316ZM150.316 135C158.6 135 165.316 141.716 165.316 150H169.316C169.316 139.507 160.809 131 150.316 131V135ZM135.316 150C135.316 141.716 142.032 135 150.316 135V131C139.823 131 131.316 139.507 131.316 150H135.316ZM150.316 165C142.032 165 135.316 158.284 135.316 150H131.316C131.316 160.493 139.823 169 150.316 169V165Z" fill="black" mask="url(#path-1-inside-1)"/>
<circle cx="150.316" cy="150" r="133" stroke="black" stroke-opacity="0.25" stroke-width="2"/>
<circle cx="150.316" cy="150" r="27" stroke="black" stroke-opacity="0.25" stroke-width="2"/>
<mask id="path-5-inside-2" fill="white">
<path fill-rule="evenodd" clip-rule="evenodd" d="M138.316 28C133.345 28 129.316 32.0294 129.316 37V44C129.316 48.9706 133.345 53 138.316 53H163.038L164.555 90.5497C161.931 93.2509 160.316 96.9368 160.316 101C160.316 109.284 167.032 116 175.316 116C183.6 116 190.316 109.284 190.316 101C190.316 94.4583 186.128 88.8947 180.288 86.8435L171.846 51.7785C174.519 50.2182 176.316 47.3189 176.316 44V37C176.316 32.0294 172.286 28 167.316 28H138.316Z"/>
</mask>
<path d="M163.038 53L165.037 52.9193L164.959 51H163.038V53ZM164.555 90.5497L165.99 91.9432L166.588 91.3271L166.554 90.4689L164.555 90.5497ZM180.288 86.8435L178.343 87.3116L178.598 88.3699L179.625 88.7305L180.288 86.8435ZM171.846 51.7785L170.838 50.0512L169.553 50.8008L169.901 52.2466L171.846 51.7785ZM131.316 37C131.316 33.134 134.45 30 138.316 30V26C132.241 26 127.316 30.9249 127.316 37H131.316ZM131.316 44V37H127.316V44H131.316ZM138.316 51C134.45 51 131.316 47.866 131.316 44H127.316C127.316 50.0751 132.241 55 138.316 55V51ZM163.038 51H138.316V55H163.038V51ZM161.04 53.0807L162.557 90.6304L166.554 90.4689L165.037 52.9193L161.04 53.0807ZM163.121 89.1562C160.149 92.2156 158.316 96.3958 158.316 101H162.316C162.316 97.4778 163.714 94.2862 165.99 91.9432L163.121 89.1562ZM158.316 101C158.316 110.389 165.927 118 175.316 118V114C168.136 114 162.316 108.18 162.316 101H158.316ZM175.316 118C184.705 118 192.316 110.389 192.316 101H188.316C188.316 108.18 182.496 114 175.316 114V118ZM192.316 101C192.316 93.5829 187.567 87.2802 180.95 84.9565L179.625 88.7305C184.69 90.5091 188.316 95.3336 188.316 101H192.316ZM182.232 86.3754L173.79 51.3104L169.901 52.2466L178.343 87.3116L182.232 86.3754ZM174.316 44C174.316 46.5789 172.922 48.8345 170.838 50.0512L172.854 53.5059C176.117 51.6018 178.316 48.0589 178.316 44H174.316ZM174.316 37V44H178.316V37H174.316ZM167.316 30C171.182 30 174.316 33.134 174.316 37H178.316C178.316 30.9249 173.391 26 167.316 26V30ZM138.316 30H167.316V26H138.316V30Z" fill="black" fill-opacity="0.25" mask="url(#path-5-inside-2)"/>
<path d="M77.1348 206.623C75.6313 207.627 74.1631 208.015 72.7303 207.787C71.3024 207.566 70.007 206.76 68.8439 205.37C68.0318 204.4 67.5551 203.337 67.4138 202.182C67.2775 201.033 67.4823 199.883 68.0282 198.734C68.5801 197.58 69.4258 196.521 70.5652 195.557L72.2639 194.136C73.4264 193.163 74.6274 192.505 75.8671 192.16C77.1068 191.816 78.2876 191.821 79.4097 192.176C80.5427 192.532 81.5253 193.207 82.3575 194.202C83.5306 195.604 84.075 197.028 83.9908 198.473C83.9176 199.92 83.2681 201.268 82.0422 202.518L81.1097 201.403C83.1021 199.268 83.2035 197.13 81.4137 194.991C80.4211 193.805 79.1857 193.229 77.7073 193.264C76.2339 193.305 74.7153 193.979 73.1514 195.288L71.5516 196.626C70.0416 197.89 69.123 199.239 68.7957 200.674C68.4734 202.115 68.8011 203.42 69.7787 204.588C70.7462 205.745 71.7512 206.386 72.7938 206.512C73.8423 206.633 74.9785 206.299 76.2023 205.509L77.1348 206.623Z" fill="black" fill-opacity="0.1"/>
<path d="M83.9935 217.281L93.635 211.409L94.8014 212.371L81.1856 220.372L80.5511 220.7C79.0355 221.445 77.7172 221.355 76.596 220.431C76.3369 220.217 76.0944 219.946 75.8686 219.618L76.5977 218.716L77.1135 219.232C77.6439 219.67 78.1812 219.89 78.7254 219.893C79.2706 219.907 79.9212 219.689 80.6771 219.239L82.2448 218.314L86.5557 205.571L87.7401 206.548L83.9935 217.281Z" fill="black" fill-opacity="0.1"/>
<path d="M105.419 226.42C104.446 228.14 103.293 229.291 101.958 229.874C100.627 230.449 99.3223 230.376 98.0439 229.653C96.5343 228.799 95.6782 227.615 95.4758 226.1L92.2912 231.73L91.0773 231.044L99.7198 215.764L100.852 216.404L100.031 218C101.492 217.273 102.977 217.337 104.486 218.191C105.806 218.937 106.557 220.021 106.739 221.444C106.929 222.871 106.521 224.471 105.518 226.246L105.419 226.42ZM104.317 225.513C105.113 224.105 105.453 222.83 105.336 221.687C105.22 220.544 104.645 219.68 103.611 219.096C102.863 218.673 102.118 218.489 101.377 218.546C100.636 218.603 99.9288 218.893 99.2547 219.419L96.2605 224.713C96.1952 225.51 96.3403 226.23 96.6958 226.871C97.0514 227.512 97.5998 228.042 98.341 228.461C99.3678 229.042 100.398 229.086 101.43 228.593C102.474 228.097 103.436 227.07 104.317 225.513Z" fill="black" fill-opacity="0.1"/>
<path d="M115.54 226.123C116.222 225.555 116.97 225.192 117.784 225.033C118.598 224.875 119.408 224.934 120.214 225.21C121.5 225.65 122.332 226.341 122.712 227.28C123.092 228.22 123.038 229.415 122.549 230.866L119.851 238.737L118.532 238.285L121.233 230.403C121.593 229.329 121.638 228.452 121.367 227.773C121.103 227.096 120.48 226.589 119.497 226.252C118.677 225.971 117.86 225.98 117.047 226.28C116.244 226.574 115.542 227.106 114.94 227.874L112.124 236.088L110.805 235.636L116.641 218.609L117.961 219.061L115.54 226.123Z" fill="black" fill-opacity="0.1"/>
<path d="M134.26 242.082C133.194 241.92 132.268 241.511 131.483 240.854C130.705 240.199 130.148 239.368 129.811 238.361C129.475 237.346 129.395 236.255 129.572 235.089L129.648 234.59C129.83 233.385 130.227 232.335 130.837 231.44C131.454 230.546 132.222 229.888 133.139 229.466C134.058 229.037 135.004 228.896 135.977 229.043C137.499 229.274 138.624 229.978 139.355 231.156C140.094 232.327 140.327 233.812 140.054 235.612L139.936 236.388L130.991 235.031L130.951 235.298C130.735 236.719 130.961 237.966 131.628 239.039C132.304 240.106 133.259 240.733 134.495 240.92C135.237 241.033 135.91 240.997 136.515 240.812C137.128 240.628 137.711 240.274 138.264 239.75L139.033 240.542C137.79 241.862 136.199 242.376 134.26 242.082ZM135.798 230.225C134.755 230.067 133.816 230.316 132.982 230.971C132.155 231.628 131.567 232.59 131.217 233.856L138.736 234.997L138.759 234.846C138.903 233.636 138.708 232.603 138.174 231.747C137.64 230.892 136.848 230.384 135.798 230.225Z" fill="black" fill-opacity="0.1"/>
<path d="M153.504 231.505C153.207 231.452 152.891 231.426 152.555 231.427C151.68 231.432 150.939 231.681 150.332 232.176C149.733 232.664 149.306 233.373 149.053 234.304L149.095 243.011L147.701 243.018L147.639 230.338L149.01 230.331L149.044 232.347C149.778 230.843 150.966 230.087 152.607 230.079C152.997 230.078 153.306 230.127 153.533 230.227L153.504 231.505Z" fill="black" fill-opacity="0.1"/>
<path d="M164.696 237.465L165.748 239.951L165.867 237.342L166.946 224.278L168.22 224.015L174.348 235.588L175.485 237.962L175.494 235.231L175.989 222.408L177.435 222.109L176.611 239.703L175.257 239.983L168.766 227.696L168 226.131L167.928 227.869L166.753 241.742L165.399 242.022L157.674 226.196L159.12 225.897L164.696 237.465Z" fill="black" fill-opacity="0.1"/>
<path d="M185.725 225.508C185.83 224.628 186.124 223.85 186.607 223.175C187.089 222.501 187.718 221.987 188.493 221.634C189.73 221.071 190.809 221 191.731 221.421C192.653 221.843 193.434 222.749 194.076 224.139L197.524 231.711L196.255 232.289L192.802 224.706C192.326 223.679 191.755 223.011 191.092 222.704C190.435 222.393 189.634 222.453 188.689 222.884C187.899 223.243 187.312 223.811 186.928 224.587C186.547 225.353 186.402 226.222 186.492 227.194L190.091 235.096L188.822 235.674L181.362 219.293L182.631 218.715L185.725 225.508Z" fill="black" fill-opacity="0.1"/>
<path d="M210.291 224.24C209.406 224.855 208.452 225.194 207.431 225.256C206.415 225.315 205.439 225.094 204.502 224.594C203.56 224.087 202.753 223.349 202.08 222.38L201.793 221.967C201.098 220.966 200.664 219.93 200.492 218.861C200.326 217.787 200.432 216.781 200.808 215.845C201.181 214.901 201.771 214.149 202.58 213.587C203.844 212.709 205.145 212.447 206.485 212.801C207.827 213.144 209.016 214.063 210.055 215.558L210.503 216.203L203.072 221.364L203.226 221.585C204.046 222.766 205.067 223.517 206.289 223.838C207.512 224.149 208.638 223.947 209.664 223.234C210.28 222.806 210.745 222.318 211.057 221.768C211.376 221.213 211.556 220.555 211.598 219.794L212.701 219.841C212.705 221.655 211.902 223.121 210.291 224.24ZM203.261 214.569C202.395 215.171 201.884 215.996 201.729 217.046C201.579 218.091 201.813 219.194 202.429 220.355L208.675 216.017L208.589 215.892C207.861 214.913 207.01 214.296 206.034 214.042C205.058 213.787 204.134 213.963 203.261 214.569Z" fill="black" fill-opacity="0.1"/>
<path d="M224.432 212.409C223.667 213.169 222.787 213.668 221.792 213.908C220.802 214.142 219.802 214.094 218.793 213.765C217.777 213.43 216.854 212.843 216.023 212.006L215.668 211.649C214.809 210.784 214.202 209.84 213.847 208.817C213.497 207.788 213.426 206.779 213.634 205.791C213.836 204.798 214.287 203.954 214.985 203.26C216.077 202.176 217.314 201.691 218.694 201.807C220.075 201.911 221.407 202.609 222.689 203.901L223.242 204.458L216.823 210.832L217.012 211.024C218.025 212.044 219.161 212.606 220.42 212.71C221.68 212.803 222.753 212.409 223.64 211.528C224.172 211 224.544 210.437 224.756 209.841C224.974 209.24 225.037 208.561 224.946 207.804L226.04 207.658C226.36 209.444 225.824 211.028 224.432 212.409ZM215.827 204.109C215.079 204.852 214.719 205.754 214.749 206.814C214.784 207.87 215.205 208.915 216.014 209.951L221.411 204.593L221.303 204.484C220.417 203.647 219.471 203.188 218.466 203.107C217.461 203.026 216.581 203.36 215.827 204.109Z" fill="black" fill-opacity="0.1"/>
<path d="M234.098 200.933L233.249 202.054L218.899 191.187L219.748 190.066L234.098 200.933Z" fill="black" fill-opacity="0.1"/>
</svg>
