<svg width="106" height="300" viewBox="0 0 106 300" fill="none" xmlns="http://www.w3.org/2000/svg">
<g clip-path="url(#clip0)">
<path d="M1.3158 16.5C1.3158 11.754 4.34811 7.90732 9.41302 5.19398C14.4795 2.47978 21.4309 1 28.8158 1H76.8158C84.2007 1 91.1521 2.47978 96.2186 5.19398C101.283 7.90732 104.316 11.754 104.316 16.5V278.5C104.316 285.116 101.026 290.203 95.9397 293.674C90.8272 297.163 83.9101 299 76.8158 299H28.8158C21.7215 299 14.8044 297.163 9.69193 293.674C4.60531 290.203 1.3158 285.116 1.3158 278.5V16.5Z" fill="white" stroke="black" stroke-width="2"/>
<rect x="10.8158" y="201" width="22" height="13" rx="2" stroke="black" stroke-opacity="0.25" stroke-width="2"/>
<rect x="41.8158" y="201" width="22" height="13" rx="2" stroke="black" stroke-opacity="0.25" stroke-width="2"/>
<rect x="72.8158" y="201" width="22" height="13" rx="2" stroke="black" stroke-opacity="0.25" stroke-width="2"/>
<rect x="10.8158" y="221" width="22" height="13" rx="2" stroke="black" stroke-opacity="0.25" stroke-width="2"/>
<rect x="41.8158" y="221" width="22" height="13" rx="2" stroke="black" stroke-opacity="0.25" stroke-width="2"/>
<rect x="72.8158" y="221" width="22" height="13" rx="2" stroke="black" stroke-opacity="0.25" stroke-width="2"/>
<rect x="10.8158" y="241" width="22" height="13" rx="2" stroke="black" stroke-opacity="0.25" stroke-width="2"/>
<rect x="41.8158" y="241" width="22" height="13" rx="2" stroke="black" stroke-opacity="0.25" stroke-width="2"/>
<rect x="72.8158" y="241" width="22" height="13" rx="2" stroke="black" stroke-opacity="0.25" stroke-width="2"/>
<rect x="10.8158" y="261" width="22" height="13" rx="2" stroke="black" stroke-opacity="0.25" stroke-width="2"/>
<rect x="41.8158" y="261" width="22" height="13" rx="2" stroke="black" stroke-opacity="0.25" stroke-width="2"/>
<rect x="72.8158" y="261" width="22" height="13" rx="2" stroke="black" stroke-opacity="0.25" stroke-width="2"/>
<rect x="82.3158" y="151" width="13" height="22" rx="5" stroke="black" stroke-opacity="0.25" stroke-width="2"/>
<rect x="32.3158" y="140" width="42" height="43" rx="15" stroke="black" stroke-opacity="0.25" stroke-width="2"/>
<rect x="10.3158" y="151" width="13" height="22" rx="5" stroke="black" stroke-opacity="0.25" stroke-width="2"/>
<rect x="14.3158" y="22" width="77" height="102" rx="4" stroke="black" stroke-opacity="0.25" stroke-width="2"/>
<line x1="47.3158" y1="11" x2="58.3158" y2="11" stroke="black" stroke-opacity="0.25" stroke-width="2" stroke-linecap="round" stroke-linejoin="round"/>
</g>
<defs>
<clipPath id="clip0">
<rect width="105" height="300" fill="white" transform="translate(0.315796)"/>
</clipPath>
</defs>
</svg>
