<svg width="123" height="300" viewBox="0 0 123 300" fill="none" xmlns="http://www.w3.org/2000/svg">
<g clip-path="url(#clip0)">
<rect x="1.25342" y="0.9375" width="120.125" height="298.125" fill="white" stroke="black" stroke-width="1.875"/>
<path d="M38.3979 269.034L38.3979 266.513L52.0619 266.513L46.3219 260.801L46.3219 257.301L52.3419 263.489L59.5659 256.769L59.5659 260.353L52.6779 266.513L59.5659 266.513L59.5659 269.033L38.3979 269.034ZM53.8539 252.61C54.4326 252.61 54.9646 252.489 55.4499 252.246C55.9166 251.985 56.3179 251.649 56.6539 251.238C56.9899 250.827 57.2513 250.351 57.4379 249.81C57.6246 249.269 57.7179 248.709 57.7179 248.13C57.7179 247.346 57.5406 246.665 57.1859 246.086C56.8126 245.507 56.3273 244.975 55.7299 244.49L57.1859 242.586C58.9966 243.986 59.9019 245.946 59.9019 248.466C59.9019 249.511 59.7246 250.463 59.3699 251.322C59.0153 252.162 58.5299 252.881 57.9139 253.478C57.2793 254.057 56.5419 254.505 55.7019 254.822C54.8433 255.139 53.9193 255.298 52.9299 255.298C51.9406 255.298 51.0259 255.13 50.1859 254.794C49.3273 254.439 48.5899 253.963 47.9739 253.366C47.3392 252.75 46.8446 252.022 46.4899 251.182C46.1352 250.342 45.9579 249.427 45.9579 248.438C45.9579 247.262 46.1632 246.273 46.5739 245.47C46.9846 244.649 47.5259 243.977 48.1979 243.454C48.8512 242.931 49.5979 242.558 50.4379 242.334C51.2592 242.091 52.0992 241.97 52.9579 241.97L53.8539 241.97L53.8539 252.61ZM51.8379 244.658C51.2779 244.677 50.7646 244.77 50.2979 244.938C49.8312 245.087 49.4299 245.321 49.0939 245.638C48.7392 245.955 48.4686 246.357 48.2819 246.842C48.0766 247.309 47.9739 247.859 47.9739 248.494C47.9739 249.11 48.0952 249.679 48.3379 250.202C48.5619 250.706 48.8606 251.135 49.2339 251.49C49.6073 251.845 50.0273 252.125 50.4939 252.33C50.9419 252.517 51.3899 252.61 51.8379 252.61L51.8379 244.658ZM53.8539 237.051C54.4326 237.051 54.9646 236.93 55.4499 236.687C55.9166 236.426 56.3179 236.09 56.6539 235.679C56.9899 235.269 57.2512 234.793 57.4379 234.251C57.6246 233.71 57.7179 233.15 57.7179 232.571C57.7179 231.787 57.5406 231.106 57.1859 230.527C56.8126 229.949 56.3272 229.417 55.7299 228.931L57.1859 227.027C58.9966 228.427 59.9019 230.387 59.9019 232.907C59.9019 233.953 59.7246 234.905 59.3699 235.763C59.0152 236.603 58.5299 237.322 57.9139 237.919C57.2792 238.498 56.5419 238.946 55.7019 239.263C54.8432 239.581 53.9192 239.739 52.9299 239.739C51.9406 239.739 51.0259 239.571 50.1859 239.235C49.3272 238.881 48.5899 238.405 47.9739 237.807C47.3392 237.191 46.8446 236.463 46.4899 235.623C46.1352 234.783 45.9579 233.869 45.9579 232.879C45.9579 231.703 46.1632 230.714 46.5739 229.911C46.9846 229.09 47.5259 228.418 48.1979 227.895C48.8512 227.373 49.5979 226.999 50.4379 226.775C51.2592 226.533 52.0992 226.411 52.9579 226.411L53.8539 226.411L53.8539 237.051ZM51.8379 229.099C51.2779 229.118 50.7646 229.211 50.2979 229.379C49.8312 229.529 49.4299 229.762 49.0939 230.079C48.7392 230.397 48.4686 230.798 48.2819 231.283C48.0766 231.75 47.9739 232.301 47.9739 232.935C47.9739 233.551 48.0952 234.121 48.3379 234.643C48.5619 235.147 48.8606 235.577 49.2339 235.931C49.6072 236.286 50.0272 236.566 50.4939 236.771C50.9419 236.958 51.3899 237.051 51.8379 237.051L51.8379 229.099ZM46.2939 223.397L46.2939 220.877L48.1979 220.877L48.1979 220.821C47.4886 220.335 46.9379 219.673 46.5459 218.833C46.1539 217.974 45.9579 217.097 45.9579 216.201C45.9579 215.174 46.1352 214.25 46.4899 213.429C46.8446 212.589 47.3392 211.879 47.9739 211.301C48.6086 210.703 49.3552 210.246 50.2139 209.929C51.0539 209.611 51.9592 209.453 52.9299 209.453C53.9192 209.453 54.8432 209.611 55.7019 209.929C56.5419 210.246 57.2792 210.703 57.9139 211.301C58.5299 211.879 59.0152 212.589 59.3699 213.429C59.7246 214.25 59.9019 215.174 59.9019 216.201C59.9019 217.153 59.7059 218.049 59.3139 218.889C58.9032 219.729 58.3526 220.373 57.6619 220.821L57.6619 220.877L67.4619 220.877L67.4619 223.397L46.2939 223.397ZM48.3099 216.509C48.3099 217.181 48.4312 217.787 48.6739 218.329C48.8979 218.87 49.2152 219.327 49.6259 219.701C50.0179 220.074 50.5032 220.363 51.0819 220.569C51.6419 220.774 52.2579 220.877 52.9299 220.877C53.6019 220.877 54.2272 220.774 54.8059 220.569C55.3659 220.363 55.8512 220.074 56.2619 219.701C56.6539 219.327 56.9712 218.87 57.2139 218.329C57.4379 217.787 57.5499 217.181 57.5499 216.509C57.5499 215.837 57.4379 215.23 57.2139 214.689C56.9712 214.147 56.6539 213.69 56.2619 213.317C55.8512 212.943 55.3659 212.654 54.8059 212.449C54.2272 212.243 53.6019 212.141 52.9299 212.141C52.2579 212.141 51.6419 212.243 51.0819 212.449C50.5032 212.654 50.0179 212.943 49.6259 213.317C49.2152 213.69 48.8979 214.147 48.6739 214.689C48.4312 215.23 48.3099 215.837 48.3099 216.509ZM56.3979 269.033L56.3979 266.513L70.0619 266.513L64.3219 260.801L64.3219 257.301L70.3419 263.489L77.5659 256.769L77.5659 260.353L70.6779 266.513L77.5659 266.513L77.5659 269.033L56.3979 269.033ZM71.8539 252.61C72.4326 252.61 72.9646 252.489 73.4499 252.246C73.9166 251.985 74.3179 251.649 74.6539 251.238C74.9899 250.827 75.2513 250.351 75.4379 249.81C75.6246 249.269 75.7179 248.709 75.7179 248.13C75.7179 247.346 75.5406 246.665 75.1859 246.086C74.8126 245.507 74.3273 244.975 73.7299 244.49L75.1859 242.586C76.9966 243.986 77.9019 245.946 77.9019 248.466C77.9019 249.511 77.7246 250.463 77.3699 251.322C77.0153 252.162 76.5299 252.881 75.9139 253.478C75.2793 254.057 74.5419 254.505 73.7019 254.822C72.8433 255.139 71.9193 255.298 70.9299 255.298C69.9406 255.298 69.0259 255.13 68.1859 254.794C67.3273 254.439 66.5899 253.963 65.9739 253.366C65.3392 252.75 64.8446 252.022 64.4899 251.182C64.1352 250.342 63.9579 249.427 63.9579 248.438C63.9579 247.262 64.1632 246.273 64.5739 245.47C64.9846 244.649 65.5259 243.977 66.1979 243.454C66.8512 242.931 67.5979 242.558 68.4379 242.334C69.2592 242.091 70.0992 241.97 70.9579 241.97L71.8539 241.97L71.8539 252.61ZM69.8379 244.658C69.2779 244.677 68.7646 244.77 68.2979 244.938C67.8312 245.087 67.4299 245.321 67.0939 245.638C66.7392 245.955 66.4686 246.357 66.2819 246.842C66.0766 247.309 65.9739 247.859 65.9739 248.494C65.9739 249.11 66.0952 249.679 66.3379 250.202C66.5619 250.706 66.8606 251.135 67.2339 251.49C67.6073 251.845 68.0273 252.125 68.4939 252.33C68.9419 252.517 69.3899 252.61 69.8379 252.61L69.8379 244.658ZM64.2939 240.551L64.2939 237.639L74.6539 233.691L74.6539 233.635L64.2939 229.883L64.2939 227.167L80.4219 233.467C81.0006 233.691 81.5232 233.925 81.9899 234.167C82.4753 234.41 82.8859 234.699 83.2219 235.035C83.5579 235.371 83.8193 235.782 84.0059 236.267C84.1926 236.734 84.2859 237.313 84.2859 238.003C84.2859 238.377 84.2579 238.759 84.2019 239.151C84.1646 239.525 84.0713 239.889 83.9219 240.243L81.6259 239.935C81.8313 239.431 81.9339 238.927 81.9339 238.423C81.9339 238.031 81.8779 237.705 81.7659 237.443C81.6726 237.163 81.5233 236.93 81.3179 236.743C81.1312 236.538 80.9072 236.37 80.6459 236.239C80.3846 236.109 80.0859 235.978 79.7499 235.847L77.6499 235.035L64.2939 240.551Z" fill="black" fill-opacity="0.1"/>
</g>
<defs>
<clipPath id="clip0">
<rect width="122" height="300" fill="white" transform="translate(0.315918)"/>
</clipPath>
</defs>
</svg>
