<svg width="77" height="300" viewBox="0 0 77 300" fill="none" xmlns="http://www.w3.org/2000/svg">
<g clip-path="url(#clip0)">
<mask id="path-1-inside-1" fill="white">
<path fill-rule="evenodd" clip-rule="evenodd" d="M38.3159 0C17.3291 0 0.315918 17.0132 0.315918 38V285C0.315918 293.284 7.03165 300 15.3159 300H61.3159C69.6002 300 76.3159 293.284 76.3159 285V38C76.3159 17.0132 59.3027 0 38.3159 0ZM37.3159 55C46.7048 55 54.3159 47.3888 54.3159 38C54.3159 28.6112 46.7048 21 37.3159 21C27.9271 21 20.3159 28.6112 20.3159 38C20.3159 47.3888 27.9271 55 37.3159 55Z"/>
</mask>
<path fill-rule="evenodd" clip-rule="evenodd" d="M38.3159 0C17.3291 0 0.315918 17.0132 0.315918 38V285C0.315918 293.284 7.03165 300 15.3159 300H61.3159C69.6002 300 76.3159 293.284 76.3159 285V38C76.3159 17.0132 59.3027 0 38.3159 0ZM37.3159 55C46.7048 55 54.3159 47.3888 54.3159 38C54.3159 28.6112 46.7048 21 37.3159 21C27.9271 21 20.3159 28.6112 20.3159 38C20.3159 47.3888 27.9271 55 37.3159 55Z" fill="white"/>
<path d="M2.31592 38C2.31592 18.1177 18.4337 2 38.3159 2V-2C16.2245 -2 -1.68408 15.9086 -1.68408 38H2.31592ZM2.31592 285V38H-1.68408V285H2.31592ZM15.3159 298C8.13622 298 2.31592 292.18 2.31592 285H-1.68408C-1.68408 294.389 5.92708 302 15.3159 302V298ZM61.3159 298H15.3159V302H61.3159V298ZM74.3159 285C74.3159 292.18 68.4956 298 61.3159 298V302C70.7048 302 78.3159 294.389 78.3159 285H74.3159ZM74.3159 38V285H78.3159V38H74.3159ZM38.3159 2C58.1982 2 74.3159 18.1177 74.3159 38H78.3159C78.3159 15.9086 60.4073 -2 38.3159 -2V2ZM52.3159 38C52.3159 46.2843 45.6002 53 37.3159 53V57C47.8093 57 56.3159 48.4934 56.3159 38H52.3159ZM37.3159 23C45.6002 23 52.3159 29.7157 52.3159 38H56.3159C56.3159 27.5066 47.8093 19 37.3159 19V23ZM22.3159 38C22.3159 29.7157 29.0316 23 37.3159 23V19C26.8225 19 18.3159 27.5066 18.3159 38H22.3159ZM37.3159 53C29.0316 53 22.3159 46.2843 22.3159 38H18.3159C18.3159 48.4934 26.8225 57 37.3159 57V53Z" fill="black" mask="url(#path-1-inside-1)"/>
<path fill-rule="evenodd" clip-rule="evenodd" d="M57.0654 210.086C57.3535 210.086 57.628 210.144 57.8776 210.25C58.2816 210.42 58.6206 210.715 58.8471 211.086C59.0406 211.402 59.1521 211.774 59.1521 212.172L59.1521 221.413C59.1521 222.566 58.2178 223.5 57.0654 223.5C55.9129 223.5 54.9787 222.566 54.9787 221.413L54.9787 214.259L51.9977 214.259L51.9977 216.644C51.9977 217.796 51.0634 218.73 49.911 218.73C48.7585 218.73 47.8243 217.796 47.8243 216.644L47.8243 214.259L44.8433 214.259L44.8433 221.413C44.8433 222.566 43.9091 223.5 42.7566 223.5C41.6041 223.5 40.6699 222.566 40.6699 221.413L40.6699 212.172C40.6699 211.38 41.1115 210.691 41.762 210.337C42.0576 210.177 42.3965 210.086 42.7566 210.086L42.7614 210.086L49.9053 210.086L49.911 210.086L49.9167 210.086L57.0654 210.086ZM57.0654 131.089C57.3535 131.089 57.628 131.147 57.8776 131.253C58.2816 131.424 58.6206 131.718 58.8471 132.089C59.0406 132.406 59.1521 132.778 59.1521 133.176L59.1521 142.417C59.1521 143.569 58.2178 144.504 57.0654 144.504C55.9129 144.504 54.9787 143.569 54.9787 142.417L54.9787 135.262L51.9977 135.262L51.9977 137.647C51.9977 138.8 51.0634 139.734 49.911 139.734C48.7585 139.734 47.8243 138.8 47.8243 137.647L47.8243 135.262L44.8433 135.262L44.8433 142.417C44.8433 143.569 43.9091 144.504 42.7566 144.504C41.6042 144.504 40.6699 143.569 40.6699 142.417L40.6699 133.176C40.6699 132.455 41.0349 131.82 41.5899 131.445C41.923 131.22 42.3244 131.089 42.7566 131.089L42.7618 131.089L49.9059 131.089L49.911 131.089L49.9161 131.089L57.0654 131.089ZM57.0654 181.468C58.2178 181.468 59.1521 182.402 59.1521 183.555L59.1521 188.622C59.1521 189.775 58.2178 190.709 57.0654 190.709C55.9129 190.709 54.9787 189.775 54.9787 188.622L54.9787 188.026L44.8433 188.026L44.8433 188.622C44.8433 189.775 43.9091 190.709 42.7566 190.709C41.6042 190.709 40.6699 189.775 40.6699 188.622L40.6699 185.947L40.6699 185.939L40.6699 185.931L40.6699 183.555C40.6699 182.402 41.6042 181.468 42.7566 181.468C43.9091 181.468 44.8433 182.402 44.8433 183.555L44.8433 183.853L54.9787 183.853L54.9787 183.555C54.9787 182.402 55.9129 181.468 57.0654 181.468ZM59.1521 149.869C59.1521 148.717 58.2178 147.783 57.0654 147.783L42.7566 147.783C41.6042 147.783 40.6699 148.717 40.6699 149.869C40.6699 151.022 41.6042 151.956 42.7566 151.956L49.854 151.956L41.6621 157.175C41.1075 157.528 40.7762 158.1 40.709 158.706C40.6834 158.837 40.6699 158.972 40.6699 159.11C40.6699 160.263 41.6042 161.197 42.7566 161.197L57.0654 161.197C58.2178 161.197 59.1521 160.263 59.1521 159.11C59.1521 157.958 58.2178 157.024 57.0654 157.024L49.6666 157.024L57.8814 151.79C58.6283 151.473 59.1521 150.732 59.1521 149.869ZM59.1521 194.883C59.1521 193.73 58.2178 192.796 57.0654 192.796L42.7566 192.796C41.6042 192.796 40.6699 193.73 40.6699 194.883C40.6699 196.035 41.6042 196.969 42.7566 196.969L51.8671 196.969L50.7631 197.983C50.1661 198.531 49.9612 199.347 50.1633 200.078C50.2213 200.479 50.3966 200.868 50.6915 201.189L52.2913 202.931L42.7566 202.931C41.6042 202.931 40.6699 203.866 40.6699 205.018C40.6699 206.17 41.6042 207.105 42.7566 207.105L57.0654 207.105C58.2178 207.105 59.1521 206.17 59.1521 205.018C59.1521 204.374 58.8603 203.798 58.4017 203.415L55.0238 199.737L58.3513 196.681C58.5911 196.461 58.7676 196.197 58.8799 195.914C59.0531 195.61 59.1521 195.258 59.1521 194.883ZM59.1521 106.28L59.1521 103.135C59.1521 101.8 58.6182 100.52 57.6693 99.5812L57.533 99.4463C56.5968 98.5197 55.3329 98 54.0158 98L45.8062 98C44.4891 98 43.2252 98.5197 42.289 99.4463L42.1527 99.5812C41.2038 100.52 40.6699 101.8 40.6699 103.135L40.6699 106.28C40.6699 107.615 41.2038 108.894 42.1527 109.833L42.289 109.968C43.2252 110.895 44.4891 111.414 45.8063 111.414L54.0158 111.414C55.3329 111.414 56.5968 110.895 57.533 109.968L57.6693 109.833C58.6182 108.894 59.1521 107.615 59.1521 106.28ZM55.5749 105.519L55.5749 103.895C55.5749 103.319 55.3603 102.764 54.973 102.337C54.5337 101.853 53.9104 101.577 53.2568 101.577L46.5652 101.577C45.9116 101.577 45.2883 101.853 44.849 102.337C44.4617 102.764 44.2471 103.319 44.2471 103.895L44.2471 105.519C44.2471 106.095 44.4617 106.651 44.849 107.077C45.2883 107.561 45.9116 107.837 46.5652 107.837L53.2568 107.837C53.9104 107.837 54.5337 107.561 54.973 107.077C55.3603 106.651 55.5749 106.095 55.5749 105.519ZM59.1521 123.095L59.1521 118.193C59.1521 117.922 59.1207 117.654 59.06 117.395C59.1199 117.201 59.1521 116.994 59.1521 116.78C59.1521 115.628 58.2178 114.694 57.0654 114.694L55.6531 114.694L50.2702 114.694L42.7566 114.694C41.6042 114.694 40.6699 115.628 40.6699 116.78C40.6699 117.933 41.6042 118.867 42.7566 118.867L45.7519 118.867C45.7424 118.986 45.7376 119.106 45.7376 119.226L45.7376 123.095C45.7376 124.358 46.2207 125.579 47.0798 126.504C48.0258 127.523 49.3593 128.108 50.7494 128.108L54.1403 128.108C55.5304 128.108 56.8639 127.523 57.8099 126.504C58.669 125.579 59.1521 124.358 59.1521 123.095ZM55.2768 121.699L55.2768 122.132C55.2768 122.696 55.0501 123.236 54.6477 123.631C54.2548 124.017 53.7262 124.233 53.1756 124.233L51.714 124.233C51.1634 124.233 50.6348 124.017 50.242 123.631C49.8396 123.236 49.6129 122.696 49.6129 122.132L49.6129 121.699C49.6129 120.135 50.8808 118.867 52.4448 118.867C54.0089 118.867 55.2768 120.135 55.2768 121.699ZM59.1521 168.743L59.1521 172.756C59.1521 174.091 58.6182 175.37 57.6693 176.31L57.533 176.444C56.5968 177.371 55.3329 177.891 54.0158 177.891L45.8062 177.891C44.4891 177.891 43.2252 177.371 42.289 176.444L42.1527 176.31C41.2038 175.37 40.6699 174.091 40.6699 172.756L40.6699 168.743C40.6699 168.299 40.7388 167.865 40.8692 167.454C40.7414 167.184 40.6699 166.882 40.6699 166.563C40.6699 165.41 41.6042 164.476 42.7566 164.476L44.9365 164.476L54.8855 164.476L57.0654 164.476C58.2178 164.476 59.1521 165.41 59.1521 166.563C59.1521 166.882 59.0806 167.184 58.9528 167.454C59.0832 167.865 59.1521 168.299 59.1521 168.743ZM55.2768 171.981L55.2768 170.65C55.2768 169.545 54.3813 168.65 53.2768 168.65L46.5452 168.65C45.4406 168.65 44.5452 169.545 44.5452 170.65L44.5452 171.981C44.5452 172.503 44.7498 173.005 45.1152 173.379L45.1492 173.414C45.5255 173.799 46.041 174.015 46.5792 174.015L53.2427 174.015C53.781 174.015 54.2965 173.799 54.6728 173.414L54.7068 173.379C55.0722 173.005 55.2768 172.503 55.2768 171.981Z" fill="black" fill-opacity="0.1"/>
<line x1="1.31592" y1="64" x2="75.3159" y2="64" stroke="black" stroke-opacity="0.25" stroke-width="2"/>
</g>
<defs>
<clipPath id="clip0">
<rect width="76" height="300" fill="white" transform="translate(0.315918)"/>
</clipPath>
</defs>
</svg>
