<svg width="473" height="300" viewBox="0 0 473 300" fill="none" xmlns="http://www.w3.org/2000/svg">
<g clip-path="url(#clip0)">
<rect x="1.31592" y="1" width="470" height="298" rx="12" fill="white" stroke="black" stroke-width="2"/>
<rect x="47.3159" y="97" width="71" height="64" rx="11.6316" stroke="black" stroke-opacity="0.25" stroke-width="2"/>
<circle cx="440.316" cy="38" r="15" stroke="black" stroke-opacity="0.25" stroke-width="2"/>
<path d="M273.49 230.505C275.479 230.505 277.184 230.805 278.605 231.405C280.058 231.974 281.463 232.874 282.821 234.105L281.163 235.905C279.932 234.863 278.732 234.105 277.563 233.632C276.395 233.158 275.069 232.921 273.584 232.921C271.563 232.921 269.937 233.426 268.705 234.437C267.474 235.416 266.858 236.742 266.858 238.416C266.858 239.553 267.079 240.5 267.521 241.258C267.995 241.984 268.769 242.647 269.842 243.247C270.916 243.816 272.448 244.4 274.437 245C276.584 245.663 278.321 246.374 279.648 247.132C280.974 247.89 282 248.868 282.727 250.068C283.453 251.268 283.816 252.784 283.816 254.616C283.816 256.447 283.374 258.074 282.49 259.495C281.605 260.916 280.342 262.021 278.7 262.811C277.09 263.6 275.211 263.995 273.063 263.995C269.021 263.995 265.563 262.637 262.69 259.921L264.3 258.121C265.627 259.258 266.969 260.126 268.327 260.726C269.684 261.295 271.248 261.579 273.016 261.579C275.353 261.579 277.248 260.963 278.7 259.732C280.184 258.5 280.927 256.826 280.927 254.711C280.927 253.384 280.674 252.295 280.169 251.442C279.695 250.59 278.905 249.863 277.8 249.263C276.727 248.632 275.195 248 273.205 247.368C269.89 246.358 267.521 245.19 266.1 243.863C264.679 242.537 263.969 240.737 263.969 238.463C263.969 236.947 264.363 235.59 265.153 234.39C265.974 233.158 267.095 232.211 268.516 231.547C269.969 230.853 271.627 230.505 273.49 230.505Z" fill="black" fill-opacity="0.25"/>
<path d="M308.687 257.979C308.687 259.274 308.845 260.205 309.161 260.774C309.508 261.342 310.045 261.768 310.772 262.053L310.156 263.995C309.019 263.774 308.135 263.347 307.503 262.716C306.903 262.084 306.508 261.121 306.319 259.826C304.614 262.605 302.04 263.995 298.598 263.995C296.229 263.995 294.351 263.332 292.961 262.005C291.603 260.647 290.924 258.847 290.924 256.605C290.924 254.047 291.824 252.074 293.624 250.684C295.456 249.295 297.982 248.6 301.203 248.6H305.94V246.184C305.94 244.195 305.498 242.758 304.614 241.874C303.729 240.958 302.261 240.5 300.208 240.5C298.314 240.5 296.072 240.974 293.482 241.921L292.772 239.837C295.551 238.732 298.156 238.179 300.587 238.179C305.987 238.179 308.687 240.8 308.687 246.042V257.979ZM299.072 261.768C302.04 261.768 304.329 260.316 305.94 257.411V250.59H301.629C299.103 250.59 297.177 251.079 295.851 252.058C294.524 253.037 293.861 254.505 293.861 256.463C293.861 258.168 294.319 259.479 295.235 260.395C296.151 261.311 297.429 261.768 299.072 261.768Z" fill="black" fill-opacity="0.25"/>
<path d="M331.857 262.432C330.278 263.474 328.541 263.995 326.646 263.995C324.752 263.995 323.267 263.442 322.194 262.337C321.12 261.2 320.583 259.574 320.583 257.458V240.926H316.415V238.7H320.583V232.779L323.331 232.447V238.7H329.725L329.394 240.926H323.331V257.316C323.331 258.768 323.631 259.858 324.231 260.584C324.831 261.279 325.746 261.626 326.978 261.626C328.241 261.626 329.504 261.263 330.767 260.537L331.857 262.432Z" fill="black" fill-opacity="0.25"/>
<path d="M346.593 238.179C349.877 238.179 352.435 239.316 354.267 241.59C356.13 243.832 357.062 246.974 357.062 251.016C357.062 255.026 356.114 258.2 354.22 260.537C352.356 262.842 349.798 263.995 346.546 263.995C343.262 263.995 340.688 262.858 338.825 260.584C336.993 258.279 336.077 255.121 336.077 251.111C336.077 248.49 336.504 246.2 337.356 244.242C338.209 242.284 339.425 240.784 341.004 239.742C342.583 238.7 344.446 238.179 346.593 238.179ZM346.593 240.5C344.193 240.5 342.33 241.4 341.004 243.2C339.677 245 339.014 247.637 339.014 251.111C339.014 254.553 339.662 257.174 340.956 258.974C342.283 260.774 344.146 261.674 346.546 261.674C348.946 261.674 350.809 260.774 352.135 258.974C353.493 257.174 354.172 254.521 354.172 251.016C354.172 247.574 353.509 244.968 352.183 243.2C350.888 241.4 349.025 240.5 346.593 240.5Z" fill="black" fill-opacity="0.25"/>
<path d="M375.407 238.416C376.733 238.416 377.902 238.605 378.912 238.984C379.923 239.363 380.886 239.963 381.802 240.784L381.186 241.495C380.365 240.768 379.496 240.232 378.581 239.884C377.665 239.537 376.623 239.363 375.454 239.363C372.77 239.363 370.607 240.405 368.965 242.49C367.354 244.574 366.549 247.511 366.549 251.3C366.549 255.026 367.354 257.9 368.965 259.921C370.607 261.942 372.754 262.953 375.407 262.953C377.681 262.953 379.686 262.195 381.423 260.679L382.039 261.39C380.112 263.095 377.917 263.947 375.454 263.947C373.465 263.947 371.712 263.458 370.196 262.479C368.712 261.468 367.544 260.016 366.691 258.121C365.87 256.195 365.46 253.921 365.46 251.3C365.46 248.679 365.87 246.405 366.691 244.479C367.512 242.521 368.665 241.021 370.149 239.979C371.665 238.937 373.417 238.416 375.407 238.416Z" fill="black" fill-opacity="0.25"/>
<path d="M401.501 238.416C403.68 238.416 405.322 239.079 406.427 240.405C407.532 241.7 408.085 243.563 408.085 245.995V263.474H407.043V246.09C407.043 241.605 405.195 239.363 401.501 239.363C399.606 239.363 397.948 239.868 396.527 240.879C395.106 241.89 393.764 243.358 392.501 245.284V263.474H391.459V228.753L392.501 228.611V243.863C394.932 240.232 397.932 238.416 401.501 238.416Z" fill="black" fill-opacity="0.25"/>
<path d="M421.919 238.89V263.474H420.877V238.89H421.919ZM421.398 229.179C421.714 229.179 421.951 229.274 422.108 229.463C422.298 229.653 422.393 229.874 422.393 230.126C422.393 230.379 422.298 230.6 422.108 230.79C421.951 230.947 421.714 231.026 421.398 231.026C421.114 231.026 420.877 230.947 420.687 230.79C420.53 230.6 420.451 230.379 420.451 230.126C420.451 229.874 420.53 229.653 420.687 229.463C420.877 229.274 421.114 229.179 421.398 229.179Z" fill="black" fill-opacity="0.25"/>
<path d="M443.984 238.416C446.794 238.416 448.942 239.505 450.426 241.684C451.91 243.832 452.652 246.926 452.652 250.968C452.652 255.042 451.879 258.232 450.331 260.537C448.815 262.811 446.621 263.947 443.747 263.947C442.073 263.947 440.589 263.553 439.294 262.763C438 261.974 436.91 260.947 436.026 259.684V272.568L434.984 272.758V238.89H435.884L435.979 242.916C438.063 239.916 440.731 238.416 443.984 238.416ZM443.7 262.953C446.257 262.953 448.215 261.911 449.573 259.826C450.931 257.742 451.61 254.79 451.61 250.968C451.61 247.179 450.963 244.305 449.668 242.347C448.373 240.358 446.479 239.363 443.984 239.363C442.279 239.363 440.81 239.758 439.579 240.547C438.347 241.337 437.163 242.505 436.026 244.053V258.453C438.11 261.453 440.668 262.953 443.7 262.953Z" fill="black" fill-opacity="0.25"/>
</g>
<defs>
<clipPath id="clip0">
<rect width="472" height="300" fill="white" transform="translate(0.315918)"/>
</clipPath>
</defs>
</svg>
