<svg width="481" height="300" viewBox="0 0 481 300" fill="none" xmlns="http://www.w3.org/2000/svg">
<g clip-path="url(#clip0)">
<rect x="1.3158" y="1" width="478" height="298" rx="9" fill="white" stroke="black" stroke-width="2"/>
<g opacity="0.25">
<line x1="0.315796" y1="39" x2="480.316" y2="39" stroke="black" stroke-width="2"/>
<line x1="0.315796" y1="59" x2="480.316" y2="59" stroke="black" stroke-width="2"/>
<line x1="0.315796" y1="79" x2="480.316" y2="79" stroke="black" stroke-width="2"/>
<line x1="0.315796" y1="99" x2="480.316" y2="99" stroke="black" stroke-width="2"/>
<line x1="0.315796" y1="119" x2="480.316" y2="119" stroke="black" stroke-width="2"/>
<line x1="0.315796" y1="139" x2="480.316" y2="139" stroke="black" stroke-width="2"/>
<line x1="0.315796" y1="159" x2="480.316" y2="159" stroke="black" stroke-width="2"/>
<line x1="0.315796" y1="179" x2="480.316" y2="179" stroke="black" stroke-width="2"/>
<line x1="0.315796" y1="199" x2="480.316" y2="199" stroke="black" stroke-width="2"/>
<line x1="0.315796" y1="219" x2="480.316" y2="219" stroke="black" stroke-width="2"/>
<line x1="0.315796" y1="239" x2="480.316" y2="239" stroke="black" stroke-width="2"/>
<line x1="0.315796" y1="259" x2="480.316" y2="259" stroke="black" stroke-width="2"/>
<line x1="0.315796" y1="279" x2="480.316" y2="279" stroke="black" stroke-width="2"/>
<line x1="61.3158" y1="4.37114e-08" x2="61.3158" y2="300" stroke="black" stroke-width="2"/>
<line x1="81.3158" y1="40" x2="81.3158" y2="300" stroke="black" stroke-width="2"/>
<line x1="101.316" y1="40" x2="101.316" y2="300" stroke="black" stroke-width="2"/>
<line x1="121.316" y1="4.37114e-08" x2="121.316" y2="300" stroke="black" stroke-width="2"/>
<line x1="141.316" y1="40" x2="141.316" y2="300" stroke="black" stroke-width="2"/>
<line x1="161.316" y1="40" x2="161.316" y2="300" stroke="black" stroke-width="2"/>
<line x1="181.316" y1="4.37114e-08" x2="181.316" y2="300" stroke="black" stroke-width="2"/>
<line x1="201.316" y1="40" x2="201.316" y2="300" stroke="black" stroke-width="2"/>
<line x1="221.316" y1="40" x2="221.316" y2="300" stroke="black" stroke-width="2"/>
<line x1="241.316" y1="4.37114e-08" x2="241.316" y2="300" stroke="black" stroke-width="2"/>
<line x1="261.316" y1="40" x2="261.316" y2="300" stroke="black" stroke-width="2"/>
<line x1="281.316" y1="40" x2="281.316" y2="300" stroke="black" stroke-width="2"/>
<line x1="301.316" y1="4.37114e-08" x2="301.316" y2="300" stroke="black" stroke-width="2"/>
<line x1="321.316" y1="40" x2="321.316" y2="300" stroke="black" stroke-width="2"/>
<line x1="341.316" y1="40" x2="341.316" y2="300" stroke="black" stroke-width="2"/>
<line x1="361.316" y1="4.37114e-08" x2="361.316" y2="300" stroke="black" stroke-width="2"/>
<line x1="381.316" y1="40" x2="381.316" y2="300" stroke="black" stroke-width="2"/>
<line x1="401.316" y1="40" x2="401.316" y2="300" stroke="black" stroke-width="2"/>
<line x1="421.316" y1="4.37114e-08" x2="421.316" y2="300" stroke="black" stroke-width="2"/>
<line x1="441.316" y1="40" x2="441.316" y2="300" stroke="black" stroke-width="2"/>
<line x1="461.316" y1="40" x2="461.316" y2="300" stroke="black" stroke-width="2"/>
</g>
</g>
<defs>
<clipPath id="clip0">
<rect width="480" height="300" fill="white" transform="translate(0.315796)"/>
</clipPath>
</defs>
</svg>
