<svg width="187" height="300" viewBox="0 0 187 300" fill="none" xmlns="http://www.w3.org/2000/svg">
<g clip-path="url(#clip0)">
<mask id="path-1-inside-1" fill="white">
<path fill-rule="evenodd" clip-rule="evenodd" d="M0.315918 16C0.315918 7.16345 7.47936 0 16.3159 0H170.316C179.152 0 186.316 7.16344 186.316 16V118.5V134V177C186.316 215.398 164.454 244.158 145.874 268.599C137.358 279.803 129.531 290.099 124.816 300H110.316H76.3159H61.8159C57.1011 290.099 49.2743 279.803 40.7575 268.599C22.1783 244.158 0.315918 215.398 0.315918 177V134V118.5V16Z"/>
</mask>
<path fill-rule="evenodd" clip-rule="evenodd" d="M0.315918 16C0.315918 7.16345 7.47936 0 16.3159 0H170.316C179.152 0 186.316 7.16344 186.316 16V118.5V134V177C186.316 215.398 164.454 244.158 145.874 268.599C137.358 279.803 129.531 290.099 124.816 300H110.316H76.3159H61.8159C57.1011 290.099 49.2743 279.803 40.7575 268.599C22.1783 244.158 0.315918 215.398 0.315918 177V134V118.5V16Z" fill="white"/>
<path d="M145.874 268.599L144.282 267.389L144.282 267.389L145.874 268.599ZM124.816 300V302H126.079L126.622 300.86L124.816 300ZM61.8159 300L60.0102 300.86L60.5531 302H61.8159V300ZM40.7575 268.599L42.3497 267.389L42.3497 267.389L40.7575 268.599ZM16.3159 -2C6.37479 -2 -1.68408 6.05888 -1.68408 16H2.31592C2.31592 8.26802 8.58393 2 16.3159 2V-2ZM170.316 -2H16.3159V2H170.316V-2ZM188.316 16C188.316 6.05888 180.257 -2 170.316 -2V2C178.048 2 184.316 8.26801 184.316 16H188.316ZM188.316 118.5V16H184.316V118.5H188.316ZM188.316 134V118.5H184.316V134H188.316ZM188.316 177V134H184.316V177H188.316ZM147.467 269.809C165.993 245.438 188.316 216.166 188.316 177H184.316C184.316 214.63 162.915 242.878 144.282 267.389L147.467 269.809ZM126.622 300.86C131.229 291.184 138.911 281.065 147.467 269.809L144.282 267.389C135.804 278.541 127.832 289.014 123.01 299.14L126.622 300.86ZM110.316 302H124.816V298H110.316V302ZM110.316 298H76.3159V302H110.316V298ZM76.3159 298H61.8159V302H76.3159V298ZM63.6216 299.14C58.7995 289.014 50.8274 278.541 42.3497 267.389L39.1653 269.809C47.7212 281.065 55.4027 291.184 60.0102 300.86L63.6216 299.14ZM42.3497 267.389C23.7173 242.878 2.31592 214.63 2.31592 177H-1.68408C-1.68408 216.166 20.6393 245.438 39.1653 269.809L42.3497 267.389ZM2.31592 177V134H-1.68408V177H2.31592ZM2.31592 134V118.5H-1.68408V134H2.31592ZM-1.68408 16V118.5H2.31592V16H-1.68408Z" fill="black" mask="url(#path-1-inside-1)"/>
<rect x="27.3159" y="47" width="132" height="133" rx="6" stroke="black" stroke-opacity="0.25" stroke-width="2"/>
<path d="M65.9316 34.7616V23.3758H61.7715V19.293H74.7422V23.3758H70.623V34.7616H65.9316Z" fill="black" fill-opacity="0.1"/>
<path d="M85.2513 34.7616L83.1168 29.8975H81.4183V34.7616H76.7268V19.293H84.9834C88.6076 19.293 90.5514 21.6955 90.5514 24.593C90.5514 27.2634 89.0072 28.6759 87.7674 29.2844L90.5695 34.757H85.2513V34.7616ZM85.8054 24.593C85.8054 23.7528 85.0606 23.3895 84.2794 23.3895H81.4183V25.8328H84.2794C85.0606 25.8147 85.8054 25.4513 85.8054 24.593Z" fill="black" fill-opacity="0.1"/>
<path d="M93.0129 34.7616V19.293H104.744V23.3758H97.6862V24.9018H104.571V28.9847H97.6862V30.6832H104.744V34.7616H93.0129Z" fill="black" fill-opacity="0.1"/>
<path d="M107.183 34.7798V31.0602L113.078 23.394H107.183V19.3112H119.254V22.9944L113.341 30.7014H119.427V34.7843L107.183 34.7798V34.7798Z" fill="black" fill-opacity="0.1"/>
<path d="M120.571 27.0545C120.571 22.304 124.255 19.0432 129.041 19.0432C133.81 19.0432 137.511 22.2858 137.511 27.0545C137.511 31.805 133.828 35.0477 129.041 35.0477C124.255 35.0477 120.571 31.805 120.571 27.0545V27.0545ZM132.743 27.0545C132.743 24.8972 131.276 23.1805 129.023 23.1805C126.771 23.1805 125.304 24.8972 125.304 27.0545C125.304 29.2117 126.771 30.9285 129.023 30.9285C131.294 30.9285 132.743 29.2117 132.743 27.0545Z" fill="black" fill-opacity="0.1"/>
<path d="M147.998 34.7798L145.863 29.9157H144.165V34.7798H139.473V19.3112H147.73C151.354 19.3112 153.298 21.7137 153.298 24.6112C153.298 27.2816 151.754 28.6941 150.514 29.3026L153.316 34.7752H147.998V34.7798ZM148.57 24.593C148.57 23.7528 147.825 23.3895 147.044 23.3895H144.183V25.8329H147.044C147.83 25.8147 148.57 25.4514 148.57 24.593Z" fill="black" fill-opacity="0.1"/>
<path d="M42.8328 9C38.6472 9 35.2598 12.3874 35.2598 16.573V19.4113C33.79 19.6774 32.3159 20.0322 32.3159 20.4926V35.3049C32.3159 35.3049 32.3159 35.7146 32.7763 35.9089C34.4446 36.5847 41.0082 38.9077 42.516 39.4399C42.7103 39.5117 42.7652 39.5117 42.8159 39.5117C42.8877 39.5117 42.9215 39.5117 43.1158 39.4399C44.6236 38.9077 51.2041 36.5847 52.8724 35.9089C53.299 35.7315 53.3159 35.3218 53.3159 35.3218V20.4926C53.3159 20.0322 51.863 19.6605 50.3889 19.4113V16.573C50.41 12.3874 47.0016 9 42.8328 9ZM42.8328 12.6197C45.2994 12.6197 46.7904 14.1106 46.7904 16.5772V19.0438C44.0239 18.8496 41.6629 18.8496 38.8795 19.0438V16.5772C38.8795 14.1064 40.3704 12.6197 42.8328 12.6197V12.6197ZM42.8159 22.6762C46.2582 22.6762 49.1472 22.9423 49.1472 23.4195V32.6609C49.1472 32.8045 49.1303 32.8214 49.0036 32.8721C48.8811 32.927 43.1327 35.0008 43.1327 35.0008C43.1327 35.0008 42.9004 35.0726 42.8328 35.0726C42.761 35.0726 42.5329 34.9839 42.5329 34.9839C42.5329 34.9839 36.7845 32.9101 36.6621 32.8552C36.5396 32.8003 36.5185 32.7834 36.5185 32.644V23.4027C36.4847 22.9254 39.3736 22.6762 42.8159 22.6762V22.6762Z" fill="black" fill-opacity="0.1"/>
</g>
<defs>
<clipPath id="clip0">
<rect width="186" height="300" fill="white" transform="translate(0.315918)"/>
</clipPath>
</defs>
</svg>
