<svg width="157" height="302" viewBox="0 0 157 302" fill="none" xmlns="http://www.w3.org/2000/svg">
<path d="M77.3026 1C31.7105 1 1.3158 4.02013 1.3158 28.1812V199.322C1.31575 221.47 30.6974 301 56.0263 301H100.605C128.457 301 155.316 226.503 155.316 199.322V28.1812C155.316 4.02013 126.947 1 77.3026 1Z" fill="white" stroke="black" stroke-width="2"/>
<rect x="88.3158" y="158" width="52" height="26" rx="7" stroke="black" stroke-opacity="0.25" stroke-width="2"/>
<rect x="16.3158" y="158" width="52" height="26" rx="7" stroke="black" stroke-opacity="0.25" stroke-width="2"/>
<rect x="16.3158" y="74" width="124" height="70" rx="7" stroke="black" stroke-opacity="0.25" stroke-width="2"/>
<path d="M53.0138 50.2406V39.4195H49.06V35.5391H61.3876V39.4195H57.4726V50.2406H53.0138Z" fill="black" fill-opacity="0.1"/>
<path d="M71.3757 50.2406L69.347 45.6178H67.7327V50.2406H63.2739V35.5391H71.121C74.5655 35.5391 76.4129 37.8224 76.4129 40.5763C76.4129 43.1143 74.9453 44.4567 73.767 45.0351L76.4302 50.2363H71.3757V50.2406ZM71.9023 40.5763C71.9023 39.7777 71.1944 39.4324 70.452 39.4324H67.7327V41.7546H70.452C71.1944 41.7374 71.9023 41.3921 71.9023 40.5763Z" fill="black" fill-opacity="0.1"/>
<path d="M78.7524 50.2406V35.5391H89.9016V39.4195H83.194V40.8698H89.7376V44.7502H83.194V46.3645H89.9016V50.2406H78.7524Z" fill="black" fill-opacity="0.1"/>
<path d="M92.2195 50.2579V46.7228L97.8221 39.4368H92.2195V35.5564H103.692V39.0569L98.0725 46.3818H103.856V50.2622L92.2195 50.2579V50.2579Z" fill="black" fill-opacity="0.1"/>
<path d="M104.944 42.9157C104.944 38.4008 108.445 35.3016 112.994 35.3016C117.526 35.3016 121.044 38.3835 121.044 42.9157C121.044 47.4306 117.544 50.5125 112.994 50.5125C108.445 50.5125 104.944 47.4306 104.944 42.9157V42.9157ZM116.512 42.9157C116.512 40.8654 115.118 39.2338 112.977 39.2338C110.836 39.2338 109.442 40.8654 109.442 42.9157C109.442 44.966 110.836 46.5976 112.977 46.5976C115.135 46.5976 116.512 44.966 116.512 42.9157Z" fill="black" fill-opacity="0.1"/>
<path d="M131.011 50.2579L128.982 45.6351H127.368V50.2579H122.909V35.5564H130.756C134.2 35.5564 136.048 37.8397 136.048 40.5936C136.048 43.1316 134.58 44.474 133.402 45.0524L136.065 50.2536H131.011V50.2579ZM131.555 40.5763C131.555 39.7778 130.847 39.4325 130.104 39.4325H127.385V41.7547H130.104C130.851 41.7374 131.555 41.3921 131.555 40.5763Z" fill="black" fill-opacity="0.1"/>
<path d="M31.0606 25.7565C27.0825 25.7565 23.8631 28.9759 23.8631 32.954V35.6515C22.4661 35.9044 21.0652 36.2416 21.0652 36.6791V50.757C21.0652 50.757 21.0652 51.1464 21.5027 51.331C23.0883 51.9733 29.3264 54.1811 30.7595 54.6869C30.9442 54.7552 30.9964 54.7552 31.0445 54.7552C31.1128 54.7552 31.1449 54.7552 31.3295 54.6869C32.7626 54.1811 39.0167 51.9733 40.6024 51.331C41.0078 51.1624 41.0239 50.7731 41.0239 50.7731V36.6791C41.0239 36.2416 39.643 35.8883 38.242 35.6515V32.954C38.2621 28.9759 35.0226 25.7565 31.0606 25.7565ZM31.0606 29.1967C33.4049 29.1967 34.8219 30.6137 34.8219 32.958V35.3023C32.1926 35.1176 29.9486 35.1176 27.3033 35.3023V32.958C27.3033 30.6097 28.7203 29.1967 31.0606 29.1967V29.1967ZM31.0445 38.7545C34.3161 38.7545 37.0618 39.0074 37.0618 39.461V48.2441C37.0618 48.3806 37.0458 48.3966 36.9253 48.4448C36.8089 48.497 31.3456 50.468 31.3456 50.468C31.3456 50.468 31.1248 50.5362 31.0606 50.5362C30.9923 50.5362 30.7756 50.4519 30.7756 50.4519C30.7756 50.4519 25.3122 48.4809 25.1958 48.4287C25.0794 48.3766 25.0593 48.3605 25.0593 48.228V39.4449C25.0272 38.9913 27.7729 38.7545 31.0445 38.7545V38.7545Z" fill="black" fill-opacity="0.1"/>
</svg>
